<svg xmlns="http://www.w3.org/2000/svg" width="400" height="400"><g fill-rule="evenodd"><path d="M186.6 33.187c-1.76.184-4.37.447-5.8.583-1.43.136-3.59.406-4.8.601-1.21.195-3.456.557-4.992.803-2.666.429-8.456 1.742-13.608 3.087-1.32.345-3.39.86-4.6 1.146-2.654.626-4.439 1.222-6.696 2.233-.932.418-1.922.76-2.2.759-.277-.001-1.809.539-3.404 1.2-1.595.661-4.295 1.773-6 2.473-3.468 1.423-10.303 4.719-13.8 6.655-1.265.7-3.289 1.807-4.498 2.46-1.209.652-2.694 1.529-3.3 1.948-.606.42-1.944 1.236-2.974 1.814-1.029.578-2.118 1.298-2.419 1.599-.302.302-1.079.842-1.729 1.201-7.304 4.039-25.212 20.289-34.247 31.078-3.666 4.378-8.829 11.221-9.788 12.973-.361.66-.793 1.29-.959 1.4-.393.26-4.179 6.389-5.64 9.132-.625 1.172-1.469 2.612-1.875 3.2-.778 1.125-4.86 9.395-6.648 13.468-.58 1.32-1.227 2.713-1.439 3.095-.211.382-.384.962-.384 1.29 0 .327-.513 1.724-1.14 3.105-.627 1.38-1.271 3.05-1.431 3.71-.16.66-.527 1.74-.816 2.4-.288.66-.922 2.55-1.408 4.2-.485 1.65-1.034 3.45-1.219 4-.185.55-.453 1.63-.596 2.4-.143.77-.781 3.577-1.418 6.238-.637 2.661-1.355 6.081-1.597 7.6-.242 1.519-.603 3.752-.802 4.962-2.252 13.679-1.955 45.836.466 50.495.199.382.361 1.474.361 2.427 0 .952.356 3.07.791 4.705.434 1.635.794 3.727.8 4.649.005.922.164 1.773.354 1.89.19.117.567 1.073.838 2.124.272 1.05.639 2.36.817 2.91l1.99 6.2c.918 2.86 1.835 5.605 2.039 6.1.204.495.54 1.305.746 1.8.206.495.497 1.35.648 1.9 1.345 4.932 13.533 28.551 15.034 29.133.188.074.343.364.343.645 0 .282.495 1.161 1.1 1.953.605.793 1.719 2.303 2.476 3.355 3.564 4.956 7.291 9.785 8.425 10.914.11.11 1.49 1.73 3.067 3.6 2.668 3.166 11.075 11.601 14.749 14.8 4.479 3.898 6.547 5.6 6.807 5.6.157 0 1.044.675 1.97 1.5 1.484 1.322 3.722 2.958 8.606 6.291 2.526 1.723 7.295 4.609 7.617 4.609.174 0 .376.138.45.306.316.727 11.441 6.526 18.333 9.557 1.21.532 2.513 1.14 2.895 1.352.382.212.871.385 1.088.385.216 0 1.377.45 2.58 1 1.202.55 2.422 1.001 2.711 1.002.289.002.976.233 1.526.513.55.281 1.81.749 2.8 1.041.99.291 2.43.762 3.2 1.046 2.665.983 8.681 2.598 9.676 2.598.549 0 2.055.364 3.347.808 1.292.444 4.245 1.084 6.563 1.421 2.318.338 5.114.78 6.214.982 2.987.549 4.321.71 9.8 1.182 8.134.7 8.4.752 8.4 1.632 0 1.166 10.195 1.202 10.5.037.427-1.632 10.089-1.869 10.7-.262.209.55.689 1 1.067 1 .606 0 .596-.067-.091-.576-1.603-1.188 4.728-3.038 10.224-2.987 1.117.01 8.195-1.409 10.47-2.099.809-.246 1.785-.326 2.168-.179.384.148.815.079.958-.153.267-.431 4.069-1.679 8.004-2.626 2.209-.532 9.266-2.963 13-4.478 1.1-.446 2.18-.856 2.4-.911 1.669-.415 15.662-7.322 19.4-9.577.33-.199 1.77-1.032 3.2-1.852 1.43-.819 3.349-2.001 4.265-2.626.916-.625 1.769-1.136 1.896-1.136.126 0 .547-.26.934-.577.388-.317 2.743-2.033 5.234-3.812 12.112-8.653 28.717-24.783 34.805-33.811.594-.88 2.381-3.343 3.973-5.473 1.591-2.131 2.893-4.004 2.893-4.163 0-.159.415-.845.923-1.526 2.55-3.42 10.659-18.64 13.34-25.038 2.544-6.069 4.276-11.014 7.147-20.4 1.342-4.387 1.305-4.23 2.958-12.349.465-2.282.939-4.301 1.053-4.485.114-.185.279-1.468.365-2.851.215-3.446.941-8.674 1.281-9.224.154-.249.233-2.197.176-4.33-.139-5.151.239-7.605 1.21-7.859 1.152-.301 1.137-8.707-.016-9.008-.822-.215-1.084-1.806-1.4-8.494-.083-1.76-.361-4.19-.617-5.4s-.629-3.55-.829-5.2c-.199-1.65-.563-3.9-.808-5-.245-1.1-.595-2.99-.778-4.2-.183-1.21-.612-3.28-.953-4.6a109.19 109.19 0 01-1.104-4.8c-.265-1.32-.612-2.58-.77-2.8-.158-.22-.411-1.148-.562-2.063-.15-.915-.525-1.995-.832-2.4-.307-.405-.564-1.1-.571-1.543-.012-.737-.59-2.464-2.274-6.794l-1.321-3.4c-2.789-7.179-8.58-19.032-10.056-20.58-.199-.209-.362-.67-.362-1.025 0-.354-.36-1.031-.8-1.503-.44-.472-.8-.938-.8-1.034 0-.311-3.286-5.621-4.158-6.719-.463-.584-1.382-1.975-2.042-3.093-.66-1.117-1.327-2.034-1.483-2.038-.156-.005-.735-.779-1.287-1.72-.552-.942-1.549-2.236-2.217-2.875-.667-.64-1.213-1.322-1.213-1.516 0-.195-.225-.588-.5-.874-.275-.286-2.253-2.568-4.395-5.071-4.425-5.171-11.687-12.436-16.705-16.713a618.01 618.01 0 01-4.537-3.897c-1.188-1.043-9.043-6.848-10.206-7.542-.368-.22-1.314-.895-2.101-1.5-.787-.605-1.58-1.1-1.762-1.1-.182 0-.636-.276-1.01-.614-3.271-2.961-23.583-13.253-29.184-14.788-1.775-.486-4-1.542-4-1.899 0-.19-.163-.246-.362-.123-.32.198-4.313-.969-9.638-2.816-3.274-1.136-7.368-2.224-9.6-2.552-1.21-.177-2.72-.527-3.356-.777-.636-.249-2.616-.631-4.4-.847-1.784-.216-4.504-.57-6.044-.786-1.54-.217-4.24-.576-6-.798-4.255-.537-26.752-.839-30.8-.413M263 82.4c.136.22-.078.403-.476.406-.614.005-.633.065-.124.394.33.213 1.555.391 2.722.394 2.562.007 6.769 2.033 7.119 3.428.23.914 3.759 4.104 3.759 3.398 0-.231-.18-.42-.4-.42-.22 0-.4-.221-.4-.491s.444-.045.986.5c1.178 1.183.884 5.288-.513 7.178-.422.57-1.318 2.292-1.991 3.825-3.174 7.224-6.708 13.219-8.146 13.814-.8.332-1.187.838-1.364 1.785-.137.727-.681 1.728-1.21 2.225-.529.497-.962 1.128-.962 1.403 0 .274-.699 1.908-1.554 3.63a561.345 561.345 0 00-3.034 6.231c-.815 1.705-1.624 3.1-1.799 3.1-.314 0-1.445 2.85-1.905 4.8-.13.55-.735 1.63-1.345 2.4s-1.421 2.21-1.802 3.2c-.382.99-1.024 2.278-1.427 2.862-.404.584-.734 1.224-.734 1.422 0 .198-.45.971-1 1.716s-1.003 1.635-1.006 1.978c-.003.342-.265 1.072-.582 1.622-1.051 1.825-2.473 4.984-2.761 6.134-.156.624-.71 1.562-1.232 2.083-.521.521-1.068 1.494-1.214 2.161-.147.667-.435 1.317-.64 1.444-.206.127-.938 1.434-1.628 2.904-2.307 4.921-3.541 7.46-4.507 9.274-.527.99-1.066 2.29-1.199 2.889-.132.599-.597 1.421-1.033 1.827-.436.406-1.048 1.589-1.361 2.629-.313 1.04-1.006 2.468-1.54 3.173-.534.705-1.092 1.777-1.241 2.382-.149.605-.448 1.1-.664 1.1-.215 0-.398.315-.405.7-.007.385-.539 1.6-1.18 2.7-1.651 2.828-2.807 5.383-2.807 6.202 0 .385-.239.898-.531 1.141-.292.242-1.385 2.199-2.428 4.349-1.043 2.149-2.054 4.178-2.247 4.508-1.139 1.948-4.394 8.883-4.394 9.361 0 .313 1.305 1.274 2.9 2.136 1.595.862 3.26 1.763 3.7 2.003.44.24 2.06.998 3.6 1.684 1.54.687 3.16 1.457 3.6 1.713 1.261.732 13.373 6.693 15.705 7.728 1.158.515 2.218 1.259 2.357 1.655.757 2.161 3.895 9.979 4.143 10.32 1.491 2.051 1.98 30.795.571 33.52a488.836 488.836 0 00-5.537 11.08c-1.01 2.09-2.095 4.25-2.412 4.8-.316.55-.829 1.54-1.14 2.2-.31.66-1.379 2.82-2.374 4.8-.995 1.98-3.452 6.93-5.461 11-2.008 4.07-4.007 8.03-4.444 8.8-.436.77-1.612 3.133-2.614 5.251-2.545 5.379-1.948 5.065-11.112 5.828l-7.824.651-3.129-1.482c-1.721-.815-3.579-1.74-4.129-2.056-.55-.316-5.23-2.655-10.4-5.198-5.17-2.542-9.85-4.868-10.4-5.168-.996-.543-3.553-1.836-6.6-3.337a2243.193 2243.193 0 01-18.4-9.189c-2.86-1.451-5.632-2.832-6.16-3.069-.528-.237-5.208-2.569-10.4-5.182-5.192-2.614-9.883-4.954-10.425-5.2-9.482-4.318-21.76-10.947-22.105-11.934-.213-.613-.535-1.115-.715-1.115-.27 0-3.037-4.641-4.651-7.8-1.355-2.653-1.744-3.502-1.744-3.807 0-.397 4.522-10.107 5.399-11.593.324-.55 1.036-1.9 1.581-3 .545-1.1 1.26-2.45 1.59-3 .329-.55 1.964-3.88 3.632-7.4 1.668-3.52 3.293-6.85 3.61-7.4.318-.55.948-1.81 1.4-2.8.453-.99.993-2.07 1.2-2.4.841-1.339 7.188-14.369 7.188-14.756 0-.924 2.765-3.457 7.355-6.74 2.665-1.906 6.015-4.39 7.445-5.521 1.43-1.131 3.5-2.658 4.6-3.393 1.1-.736 2.09-1.44 2.2-1.565.884-1.006 3.793-2.438 5.622-2.768 1.222-.221 2.932-.669 3.8-.997 6.399-2.418 7.93-2.226 16.578 2.076 4.07 2.025 7.67 3.839 8 4.031.33.192 2.4 1.22 4.6 2.284 2.2 1.065 5.24 2.614 6.755 3.442 1.516.829 2.956 1.507 3.2 1.507.76 0 2.505-2.528 2.788-4.036.148-.79.716-1.856 1.263-2.37.547-.513.994-1.227.994-1.585 0-.359.537-1.499 1.193-2.534.656-1.035 1.31-2.375 1.453-2.978.142-.603.576-1.457.963-1.897.388-.44.827-1.377.975-2.081.149-.705.586-1.695.97-2.2 1.048-1.379 2.31-3.988 2.628-5.435.155-.706.427-1.284.606-1.284.178 0 .725-.854 1.216-1.898s1.205-2.296 1.587-2.781c.382-.486.924-1.702 1.204-2.702.28-1.001.668-1.819.862-1.819.194 0 .896-1.215 1.561-2.7.664-1.485 1.562-3.355 1.995-4.154.433-.8.787-1.808.787-2.24 0-.432.518-1.5 1.15-2.374.633-.873 1.278-1.989 1.434-2.481.156-.491.898-1.981 1.65-3.311.751-1.329 1.366-2.642 1.366-2.916 0-.275.36-.826.8-1.224.44-.398.8-.878.8-1.067 0-.189.81-1.998 1.8-4.02.99-2.022 1.807-4.045 1.816-4.495.009-.45.549-1.441 1.2-2.203.651-.762 1.184-1.611 1.184-1.887 0-.737 3.227-6.928 3.611-6.928.18 0 .542-.675.805-1.5s1.177-2.782 2.031-4.349c.854-1.567 1.553-3.208 1.553-3.646 0-.439.328-1.226.728-1.751.4-.525 1.385-2.335 2.187-4.022.803-1.688 1.645-3.184 1.872-3.324.227-.14.413-.562.413-.936s.715-2.119 1.59-3.876c.874-1.758 1.594-3.421 1.6-3.696.005-.275.204-.5.442-.5.258 0 .342-.442.208-1.1-.135-.668.072-1.718.527-2.675.413-.867.672-1.779.577-2.027-.095-.248.102-.979.439-1.624.337-.646.613-.909.615-.585.001.385.224.272.642-.325.352-.503.551-1.254.442-1.671-.132-.504.135-.974.798-1.409.842-.551.957-.859.746-1.987-.144-.764-.074-1.443.162-1.589.226-.141.415.07.419.468.004.508.266.318.877-.636.508-.794.859-1.961.841-2.8-.019-.922.067-1.177.239-.709.363.99 1.162-.522 1.324-2.508.106-1.301.201-1.383 1.712-1.481.88-.058 2.14-.278 2.8-.489 1.616-.517 3.298-.542 3.6-.053m5.176 3.02c.86.642 1.592.776 1.254.228-.12-.193-.625-.454-1.124-.58-.874-.22-.879-.208-.13.352" fill="#12b6d3"/><path d="M185.752 31.381c-.501 1.306 1.569 1.722 2.828.567.209-.191.749-.369 1.2-.395.572-.033.457-.14-.38-.353-2-.509-3.41-.439-3.648.181M197.3 31.3c.252.757 1.5.864 1.5.129 0-.371-.342-.629-.833-.629-.489 0-.765.207-.667.5m12.917-.152c-1.115.239-1.05.295 1.146.988 2.424.764 3.379.531 2.903-.709-.251-.654-1.799-.761-4.049-.279m-31.931.7c-.722.722.967 1.428 2.228.931 2.144-.845 2.153-1.179.033-1.179-1.108 0-2.125.111-2.261.248m39.724.052c.016.49 2.532 1.555 3.29 1.392 1.76-.378.751-1.692-1.3-1.692-1.1 0-1.996.135-1.99.3m-44.561.82c-.108.176.143.532.558.792.479.298.845.328.998.08.133-.216.581-.392.995-.392.414 0 .864-.18 1-.4.151-.244-.455-.4-1.553-.4-.99 0-1.889.144-1.998.32m49.351.04c0 .495.831.754 1.7.528 1.089-.282.825-.708-.5-.809-.66-.051-1.2.076-1.2.281m-53.6.853c0 .608 1.061.909 2.201.623 1.552-.39 1.177-1.036-.601-1.036-.88 0-1.6.186-1.6.413m58.4-.056c0 .532 1.137.869 1.415.419.132-.214.436-.268.674-.121.26.16.32.082.149-.193-.334-.541-2.238-.63-2.238-.105m-61.6.8c0 .529 1.205.895 2.056.625 1.233-.391.838-.982-.656-.982-.77 0-1.4.161-1.4.357m64.8-.004c0 .483 1.424.818 2.396.564.437-.114.696-.367.576-.562-.285-.462-2.972-.463-2.972-.002m-70.095 1.328c.253.965 1.295.921 1.295-.056 0-.508-.255-.756-.741-.719-.506.038-.682.284-.554.775m2.095-.481c0 .22.54.4 1.2.4.66 0 1.2-.18 1.2-.4 0-.22-.54-.4-1.2-.4-.66 0-1.2.18-1.2.4m72 0c0 .22.63.4 1.4.4.77 0 1.4.18 1.4.4 0 .22.18.4.4.4.22 0 .4-.36.4-.8 0-.681-.267-.8-1.8-.8-.99 0-1.8.18-1.8.4m-76.972.755c-.301.487.838 1.375 1.354 1.056.709-.438.461-1.411-.358-1.411-.427 0-.875.16-.996.355m82.716.243c.141.367.256.743.256.835 0 .092.373.167.829.167 1.178 0 .833-1.362-.389-1.535-.751-.107-.898.006-.696.533M155.3 36.9c.092.275.497.5.9.5s.808-.225.9-.5c.106-.317-.224-.5-.9-.5s-1.006.183-.9.5m87.7-.1c-.14.227.196.4.776.4.563 0 1.024-.18 1.024-.4 0-.22-.349-.4-.776-.4-.427 0-.888.18-1.024.4m-91.1.957c-.925.702-.884 1.043.126 1.043 1.019 0 2.374-.693 2.374-1.214 0-.563-1.685-.448-2.5.171m93.7-.147c0 .435 1.665 1.19 2.626 1.19.316 0 .574-.18.574-.4 0-.22-.281-.4-.624-.4-.343 0-.512-.18-.376-.4.144-.233-.263-.4-.976-.4-.673 0-1.224.184-1.224.41m-99.481 1.752c-.704.256-1.409.595-1.566.752-.158.157-.616.286-1.02.286-.403 0-.733.18-.733.4 0 .875 3.059.439 3.512-.5.239-.495.446-.675.461-.4.015.275.286.5.602.5.329 0 .549-.343.515-.8-.033-.44-.157-.779-.275-.752-.118.026-.791.257-1.496.514m2.681-.162c0 .22.27.4.6.4.33 0 .6-.18.6-.4 0-.22-.27-.4-.6-.4-.33 0-.6.18-.6.4m101.2.02c0 .296.446.405 1.2.295.819-.121 1.2-.008 1.2.354 0 .292.36.531.8.531.44 0 .8.18.8.4 0 .22.54.4 1.2.4.66 0 1.2-.18 1.2-.4 0-.22-.236-.4-.525-.4-.288 0-.873-.315-1.3-.7-.917-.828-4.575-1.212-4.575-.48M141 41.6c.136.22.507.4.824.4.317 0 .576-.18.576-.4 0-.22-.371-.4-.824-.4-.453 0-.712.18-.576.4m116.71.1c.097.275.472.475.833.444.361-.03.657.105.657.3 0 .196.27.356.6.356.796 0 .759-.391-.1-1.043-.895-.68-2.223-.717-1.99-.057m-119.291.68c-.319.202-.724.278-.9.17-.175-.108-.319.083-.319.426 0 .345.338.624.754.624.983 0 2.91-1.003 2.573-1.339-.371-.372-1.427-.312-2.108.119m122.62.314c-.517.518-.191.906.761.906 1.158 0 1.378-1.001.239-1.087-.419-.032-.869.05-1 .181m-126.381.932c-.578.454-1.232.714-1.454.576-.222-.137-.404-.071-.404.147 0 .739 1.463.867 2.923.257 1.006-.42 1.381-.791 1.222-1.206-.316-.824-1.044-.752-2.287.226M263.2 43.6c0 .525.267.8.776.8.427 0 .888.18 1.024.4.314.508 1.8.526 1.8.023 0-.506-1.65-1.639-2.038-1.4-.168.105-.42.007-.558-.216-.421-.683-1.004-.454-1.004.393m4.09 1.671c.217.651 1.413 1.36 1.74 1.032.148-.148.162-.546.032-.886-.274-.714-2.009-.857-1.772-.146M128.2 46.8c-.136.22-.577.4-.979.4-1.039 0-2.683 1.391-2.083 1.762.259.16.567.03.691-.292.122-.32.539-.499.925-.398.386.101.927-.088 1.203-.42.276-.333.758-.506 1.072-.385.349.133.571-.032.571-.424 0-.706-1.006-.88-1.4-.243m142.2.233c0 .707.861.584 1.108-.158.087-.261-.126-.475-.475-.475a.635.635 0 00-.633.633m3.082.418c-.535.535.338 1.667 1.646 2.133.81.289 1.966.872 2.569 1.296.604.424 1.279.659 1.5.522.222-.137.403-.059.403.174 0 .233.36.424.8.424.44 0 .8.18.8.4 0 .22.283.4.629.4 1.009 0 .488-1.394-.54-1.446-.496-.025-1.234-.43-1.642-.9-.407-.47-1.215-.854-1.794-.854s-1.053-.18-1.053-.4c0-.22-.36-.4-.8-.4-.502 0-.8-.267-.8-.715 0-.657-1.238-1.114-1.718-.634M122 49.6c-.317.44-.897.8-1.288.8-.895 0-.932.741-.054 1.078.39.149.856-.019 1.144-.413.267-.366.745-.665 1.062-.665.622 0 1.536-.761 1.536-1.28 0-.658-1.845-.289-2.4.48m-4.248 2.181c-.123.319-.101.778.048 1.019.342.553 1.4-.24 1.4-1.049 0-.733-1.165-.709-1.448.03M116 53.2c0 .22-.36.4-.8.4-.44 0-.8.18-.8.4 0 .22-.36.4-.8.4-.44 0-.8.18-.8.4 0 .22-.268.4-.597.4-.328 0-.821.36-1.096.8-.275.44-.732.8-1.017.8-.821 0-2.49 1.237-2.49 1.846 0 .908 1.637.27 2.847-1.109.356-.405.914-.737 1.24-.737.326 0 1.338-.54 2.25-1.2.911-.66 1.838-1.2 2.06-1.2.221 0 .403-.18.403-.4 0-.22.27-.4.6-.4.33 0 .6-.18.6-.4 0-.22-.36-.4-.8-.4-.44 0-.8.18-.8.4m167.2-.147c0 .474 1.702 1.731 2.052 1.515.632-.391.362-.968-.452-.968-.44 0-.8-.18-.8-.4 0-.22-.18-.4-.4-.4-.22 0-.4.114-.4.253m4.4 3.347c0 .22.27.4.6.4.33 0 .6-.18.6-.4 0-.22-.27-.4-.6-.4-.33 0-.6.18-.6.4m2.4.8c0 .613 1.525 2 2.2 2 .33 0 .6.184.6.41 0 .225.45.581 1 .79.55.209 1 .565 1 .79 0 .226.242.41.538.41.296 0 .864.36 1.262.8.398.44.966.8 1.262.8.296 0 .538.141.538.314 0 .466 2.414 1.806 2.714 1.506.423-.424-.506-1.581-1.751-2.18-.64-.309-1.307-.804-1.483-1.1-.176-.297-.553-.54-.838-.54-.285 0-.85-.366-1.255-.814-.405-.448-.973-.724-1.262-.613-.289.111-.525-.062-.525-.386 0-.323-.283-.587-.629-.587-.345 0-.879-.225-1.186-.5-1.795-1.61-2.185-1.806-2.185-1.1m-184 2.187c0 .352-.235.498-.585.363-.56-.214-2.615 1.59-2.615 2.296 0 .181-.281.221-.626.089-.381-.147-.858.092-1.222.612-.329.469-.829.853-1.113.853-.283 0-.841.36-1.239.8-.398.44-.945.8-1.216.8s-.763.413-1.094.918c-.876 1.338.747 1.406 2.11.089 2.234-2.158 3.286-2.94 5.5-4.084.715-.369 1.3-.827 1.3-1.018 0-.191.529-.531 1.176-.756.767-.268 1.1-.608.957-.98-.288-.749-1.333-.735-1.333.018m195.6 6.166c0 .443 2.599 2.447 3.173 2.447.235 0 .427.249.427.554 0 .305.405.824.9 1.154a21.13 21.13 0 011.9 1.491c.55.491 1.63 1.365 2.4 1.944s1.525 1.228 1.678 1.443c.153.215.4.269.55.12.284-.285-4.882-5.506-5.448-5.506-.179 0-.44-.36-.58-.8-.14-.44-.512-.8-.827-.8-.315 0-.573-.18-.573-.4 0-.22-.258-.4-.573-.4-.315 0-.687-.36-.827-.8-.252-.795-2.2-1.191-2.2-.447M93.342 68.568c-1.38 1.478-.516 2.172 1.01.812.686-.612 1.248-1.262 1.248-1.446 0-.663-1.419-.265-2.258.634m-4.079 3.691c-1.176 1.21-2.021 2.316-1.879 2.459.143.142.385.083.538-.132.153-.215.937-.882 1.743-1.482 1.858-1.384 2.735-2.26 2.735-2.733 0-.857-1.132-.175-3.137 1.888m-8.488 7.272c-5.397 5.447-6.492 6.869-5.291 6.869.951 0 2.701-1.777 2.334-2.37-.146-.237-.03-.432.258-.434.997-.008 8.473-7.43 8.201-8.141-.394-1.025-.599-.873-5.502 4.076M314.8 76.573c0 1.065 8.345 9.093 9.302 8.949.656-.099.041-.9-3.247-4.231-2.23-2.259-4.055-4.284-4.055-4.5 0-.215-.165-.391-.367-.391-.202 0-.652-.109-1-.243-.419-.161-.633-.02-.633.416m9.6 10.194c0 .201.142.426.315.5.173.073.938.943 1.7 1.933 1.435 1.865 1.973 2.383 2.485 2.394.756.015.126-.985-1.891-3.003-2.214-2.214-2.609-2.49-2.609-1.824M72.1 89.422c-1.155 1.189-2.1 2.346-2.1 2.57 0 .224-.153.408-.341.408-.187 0-.905.54-1.596 1.2-.691.66-1.161 1.2-1.045 1.2.115 0 .017.36-.218.8-.235.44-.615.8-.843.8-.616 0-1.557 1.056-1.557 1.748 0 .333-.191.723-.425.867-.233.145-.593.65-.799 1.124-.597 1.374-1.296 2.381-2.476 3.564-.605.607-1.1 1.357-1.1 1.667 0 .31-.212.634-.472.721-.527.175-.164 1.509.411 1.509.2 0 .588-.54.861-1.2.273-.66.625-1.2.781-1.2.156 0 .537-.495.846-1.1.789-1.544 3.607-5.3 3.975-5.3.169 0 .594-.605.944-1.343.351-.739 1.367-2.134 2.258-3.1 2.844-3.085 5.596-6.485 5.596-6.915 0-.581-.737-.041-2.7 1.98M330 92.911c0 .281.54 1.102 1.2 1.825.66.722 1.203 1.437 1.206 1.589.004.151.537.876 1.185 1.612.648.735 1.281 1.66 1.407 2.056.126.397.583.813 1.015.926.433.114.787.521.787.906s.494 1.346 1.098 2.137c1.823 2.386 3.702 5.199 3.702 5.54 0 .177.36.581.8.898.44.317.8.897.8 1.288 0 .392.18.712.4.712.22 0 .4.27.4.6 0 .33.136.6.302.6.167 0 .547.553.847 1.229.493 1.114 2.24 4.339 4.304 7.944.866 1.513 1.747 2.048 1.747 1.06 0-.348-.18-.633-.4-.633-.22 0-.4-.36-.4-.8 0-.44-.18-.8-.4-.8-.22 0-.4-.36-.4-.8 0-.44-.18-.8-.4-.8-.22 0-.4-.467-.4-1.037 0-.7-.259-1.106-.796-1.246-.437-.114-.705-.353-.596-.53.11-.177-.072-.594-.404-.926-.332-.332-.604-.847-.604-1.144 0-.297-.36-.8-.8-1.117-.44-.317-.8-.987-.8-1.488 0-.502-.15-.912-.332-.912-.183 0-.588-.495-.9-1.1-.313-.605-1.025-1.55-1.583-2.1-.559-.55-.95-1.315-.871-1.7.08-.385-.049-.7-.285-.7s-.429-.236-.429-.525c0-.288-.36-.911-.8-1.383-.44-.472-.8-1.117-.8-1.432 0-.316-.256-.673-.57-.793-.313-.12-.874-.86-1.245-1.643-.372-.783-.836-1.424-1.031-1.424-.195 0-.354-.371-.354-.824 0-.453-.18-.712-.4-.576-.22.136-.4-.005-.4-.312 0-.308-.445-.762-.989-1.01s-1.103-.907-1.243-1.464c-.14-.558-.511-1.014-.824-1.014-.313 0-.673-.27-.799-.6-.281-.732-.945-.795-.945-.089M57.7 108.61c-.495.529-.9 1.065-.9 1.192s-.36.618-.8 1.09c-.44.472-.8 1.095-.8 1.383 0 .289-.18.525-.4.525-.22 0-.4.36-.4.8 0 .44-.18.8-.4.8-.22 0-.4.294-.4.653 0 .359-.315.946-.7 1.304-.955.889-1.607 2.144-1.412 2.718.24.704 1.95-.914 2.562-2.422.279-.689 1.192-2.265 2.029-3.502.837-1.236 1.521-2.451 1.521-2.7 0-.248.151-.451.336-.451.291 0 1.264-1.708 1.264-2.219 0-.43-.666-.062-1.5.829m-7.3 12.19c0 .44-.18.8-.4.8-.22 0-.4.32-.4.712 0 .391-.36.971-.8 1.288-.44.317-.8.987-.8 1.488 0 .502-.18.912-.4.912-.22 0-.4.349-.4.776 0 .427-.18.888-.4 1.024-.576.356-.494 1.8.102 1.8.48 0 1.135-1.197 1.678-3.064.138-.475.514-1.082.835-1.349.322-.267.585-.788.585-1.158 0-.371.45-1.284 1-2.029 1.209-1.639 1.245-2 .2-2-.533 0-.8.267-.8.8m300.8 5c0 .33.18.6.4.6.22 0 .4-.27.4-.6 0-.33-.18-.6-.4-.6-.22 0-.4.27-.4.6m.901.839c-.392.709-.217 1.35 1.117 4.101.87 1.793 1.582 3.53 1.582 3.86 0 .33.18.6.4.6.22 0 .4.439.4.976 0 .537.18 1.088.4 1.224.22.136.4.597.4 1.024 0 .427.27.776.6.776.943 0-.108-4.468-1.342-5.702-.252-.252-.458-.764-.458-1.137 0-.374-.525-1.677-1.166-2.897-.641-1.219-1.234-2.542-1.318-2.94-.138-.661-.192-.65-.615.115M45.867 130.3c-.173.275-.215.661-.093.858.122.197-.048.461-.376.588-.329.126-.598.431-.598.678 0 .248-.358.904-.795 1.46-.437.555-.691 1.177-.565 1.381.126.203-.012.667-.306 1.029-.455.562-.445.614.066.353.44-.225.427-.163-.048.229-.356.295-.784 1.157-.95 1.917-.167.759-.489 1.747-.715 2.194-.964 1.905-1.087 2.241-1.087 2.984 0 .43-.18.893-.4 1.029-.22.136-.4.597-.4 1.024 0 .427-.225.779-.5.782-.368.005-.357.097.043.35.378.24.408.427.1.618-.552.341-.588 2.226-.043 2.226.22 0 .4-.45.4-1s.18-1 .4-1c.22 0 .4-.45.4-1s.18-1 .4-1c.22 0 .4-.439.4-.976 0-.537.18-1.088.4-1.224.22-.136.4-.867.4-1.624 0-.757.135-1.377.3-1.379.406-.004 1.3-1.983 1.3-2.877 0-.396.174-.72.387-.72.214 0 .295-.241.182-.536-.113-.295.073-.767.413-1.049.34-.282.618-.823.618-1.203 0-.379.283-1.257.629-1.951.637-1.276.67-3.167.038-2.161m311.333 9.876c0 .317.18.688.4.824.22.136.4.676.4 1.2 0 .524.18 1.064.4 1.2.22.136.4.687.4 1.224 0 .537.18.976.4.976.22 0 .4.529.4 1.176 0 .647.18 1.288.4 1.424.22.136.4.597.4 1.024 0 .427.187.776.416.776.235 0 .375-.698.322-1.6-.052-.88-.239-1.6-.416-1.6s-.322-.54-.322-1.2c0-.66-.18-1.2-.4-1.2-.22 0-.4-.234-.4-.52 0-.697-.932-2.673-1.263-2.677-.144-.002-.168-.363-.053-.803.146-.556.012-.8-.437-.8-.356 0-.647.259-.647.576M37.696 151.995c-.273.437-.496 1.337-.496 2s-.18 1.205-.4 1.205c-.22 0-.4.45-.4 1 0 2.02.929.955 1.945-2.228.802-2.518.419-3.687-.649-1.977m323.504.125c0 .506.15 1.091.333 1.3.474.542 1.267 3.485 1.267 4.703 0 .566.18 1.141.4 1.277.22.136.4.777.4 1.424 0 .757.205 1.176.576 1.176.745 0 1.311-.904.695-1.11-.259-.086-.471-.862-.471-1.723 0-.862-.18-1.567-.4-1.567-.22 0-.4-.54-.4-1.2 0-.66-.18-1.2-.4-1.2-.22 0-.4-.414-.4-.92 0-1.054-.853-3.072-1.3-3.077-.165-.002-.3.411-.3.917M35.745 158.2c-.127.33-.132.857-.012 1.171.121.314-.016.766-.305 1.005-.615.511-.794 4.274-.22 4.629.398.246.539-.48.408-2.105-.04-.495.12-.9.355-.9.236 0 .429-.63.429-1.4 0-.77.18-1.4.4-1.4.22 0 .4-.36.4-.8 0-.934-1.115-1.087-1.455-.2m328.655 5.376c0 .673.18 1.224.4 1.224.22 0 .4-.439.4-.976 0-.537-.18-1.088-.4-1.224-.233-.144-.4.263-.4.976M34 167.8c0 .55.18 1 .4 1 .22 0 .4-.45.4-1s-.18-1-.4-1c-.22 0-.4.45-.4 1m331.153-.5c-.135 1.418.803 5.1 1.299 5.1.191 0 .348-.72.348-1.6 0-.88-.18-1.6-.4-1.6-.22 0-.4-.54-.4-1.2 0-1.139-.747-1.756-.847-.7M33.2 171c0 .55.161 1 .357 1 .467 0 .91-1.168.621-1.636-.436-.705-.978-.352-.978.636m-.8 4.074c0 1.353-.233 2.123-.839 2.767-.638.679-.776 1.181-.576 2.093.627 2.853 1.912 1.155 2.371-3.134.106-.99.315-2.205.465-2.7.223-.736.118-.9-.574-.9-.742 0-.847.232-.847 1.874m333.835-.731c-.116.189-.037.953.177 1.697.213.745.394 1.986.401 2.757.021 2.325 1.636 3.764 2.135 1.903.452-1.688.272-2.64-.548-2.9-.641-.204-.8-.605-.8-2.027 0-1.679-.735-2.449-1.365-1.43M30.8 186.176c0 2.197.28 2.799 1.069 2.298 1.267-.806.871-4.474-.483-4.474-.443 0-.586.532-.586 2.176m336.8.024c0 1.533.119 1.8.8 1.8s.8-.267.8-1.8-.119-1.8-.8-1.8-.8.267-.8 1.8M159 197.255c-1.32.425-3.738 1.04-5.373 1.366-1.636.327-3.508.86-4.162 1.186-.653.326-1.405.593-1.67.593-.265 0-2.07 1.17-4.01 2.6-1.941 1.43-3.642 2.6-3.781 2.6-.139 0-.603.315-1.03.7-1.772 1.597-8.437 6.575-11.474 8.571-2.037 1.339-2.422 2.422-1.109 3.124.435.233 1.209.824 1.72 1.314 2.676 2.569 4.573 4.114 5.287 4.309.439.119.853.506.921.859.103.534-9.424 20.518-11.977 25.123-.427.77-1.33 2.57-2.006 4-.677 1.43-1.871 3.86-2.654 5.4-7.544 14.839-7.516 14.758-5.64 16.313.783.648 1.128 1.212.934 1.526-.219.355-.102.418.41.222.759-.292 3.207.388 4.214 1.171.33.256 1.23.734 2 1.061 2.045.869 3.321 1.456 4 1.842 1.484.843 4.254 2.244 10.8 5.465 1.65.812 3.63 1.808 4.4 2.214.77.405 3.29 1.666 5.6 2.801 2.31 1.135 4.65 2.299 5.2 2.586.55.287 1.45.698 2 .913 2.022.791 4.989 2.32 6.959 3.586 1.113.715 2.254 1.3 2.537 1.3.283 0 .827.173 1.209.384.382.212 1.685.838 2.895 1.392 1.21.555 3.01 1.551 4 2.214.99.664 2.02 1.207 2.289 1.208 1.224.005 7.63 3.217 8.977 4.502.404.385.987.7 1.296.7.309 0 1.344.384 2.3.852 4.994 2.45 6.596 3.298 7.169 3.798.348.303.854.55 1.124.55.766 0 7.296 3.18 8.718 4.246.701.525 1.477.954 1.726.954.249 0 1.436.45 2.638 1 1.203.55 2.36 1 2.571 1 .212 0 .61.36.885.8.275.44.816.8 1.203.8.387 0 .704.27.704.6 0 .33.18.6.4.6.22 0 .4-.151.4-.336 0-.184.416-.525.924-.756.554-.253 1.456-1.517 2.257-3.165a736.995 736.995 0 013.343-6.743c1.104-2.2 2.633-5.26 3.397-6.8 14.812-29.876 17.279-34.446 17.279-32.006 0 .745 1.646 1.445 3.136 1.333.585-.044 1.542.234 2.127.618.602.396 1.164.535 1.295.322.141-.226.831-.168 1.737.148 2.35.817 2.316 1.039 2.191-14.123l-.113-13.859-1.556-3.616c-.856-1.989-1.681-4.067-1.834-4.617-.153-.55-.502-1.27-.777-1.6-.274-.33-.611-1.05-.749-1.6-.408-1.632-.539-1.72-8.657-5.77-4.29-2.141-8.25-4.158-8.8-4.482-.55-.325-2.17-1.131-3.6-1.791-4.65-2.148-10.043-4.903-10.247-5.234-.613-.991-1.553.088-3.56 4.09-2.702 5.389-3.101 5.657-6.933 4.66-4.197-1.092-8.159-3.165-10.637-5.565-2.753-2.666-2.761-2.974-.223-7.824 2.282-4.36 2.46-5.284 1.024-5.284-.537 0-1.086-.176-1.219-.391-.267-.434-27.93-14.185-29.205-14.518-.44-.115-1.88.138-3.2.564m209.1 14.21c-.914.369-.643 3.735.3 3.735.693 0 .8-.267.8-2 0-1.969-.106-2.136-1.1-1.735m-337.025.393c-.652.653-.294 3.404.425 3.266.524-.101.7-.527.7-1.696 0-1.471-.511-2.184-1.125-1.57m98.921 4.737c.401.484.368.644-.178.853-.788.303-1.628-.384-1.24-1.013.37-.597.833-.545 1.418.16m-98.953 2.438c-.526 1.371-.256 2.909.557 3.167.644.204.8.605.8 2.056 0 1.508.114 1.778.7 1.65.39-.086.622-.409.524-.73-.097-.317-.24-1.566-.318-2.776-.21-3.266-1.542-5.248-2.263-3.367m336.253.562c-.787 1.261-.609 2.005.48 2.005 1.201 0 1.575-.544 1.254-1.823-.297-1.182-1.059-1.262-1.734-.182m-.501 4.105c-.003.275-.114.905-.247 1.4-.177.662-.07.9.405.9.473 0 .647-.377.647-1.4 0-.77-.18-1.4-.4-1.4-.22 0-.402.225-.405.5M33.2 229.4c0 .978.181 1.4.6 1.4.616 0 .788-1.044.357-2.167-.425-1.108-.957-.682-.957.767m332.8.2c0 .66.18 1.2.4 1.2.22 0 .4-.54.4-1.2 0-.66-.18-1.2-.4-1.2-.22 0-.4.54-.4 1.2m-246.4 0c0 .44.18.8.4.8.22 0 .4-.36.4-.8 0-.44-.18-.8-.4-.8-.22 0-.4.36-.4.8M34 233c0 1.333.156 1.8.6 1.8.63 0 .773-1.112.348-2.7-.406-1.516-.948-1.002-.948.9m331.14-1c-.033.44-.078 1.01-.1 1.267-.022.256.185.541.46.633.338.113.5-.298.5-1.267 0-1.487-.754-2.043-.86-.633m-330.275 5.097c.091 2.402 1.535 4.193 1.535 1.903 0-.55-.193-1-.429-1-.235 0-.395-.405-.355-.9.116-1.432.013-1.9-.419-1.9-.225 0-.372.841-.332 1.897m329.535-1.073c0 .453.18.712.4.576.22-.136.4-.507.4-.824 0-.317-.18-.576-.4-.576-.22 0-.4.371-.4.824m-.3 2.259c-.486.178-.729 1.717-.271 1.717.125 0 .51-.282.854-.626.664-.664.269-1.403-.583-1.091m-328.425 3.212c.166.862 1.525 1.198 1.525.377 0-.322-.285-.696-.633-.829-.939-.361-1.039-.31-.892.452m327.629-.195c-.718.913-.924 3.5-.279 3.5.372 0 .575-.423.575-1.2 0-.66.18-1.2.4-1.2.22 0 .4-.36.4-.8 0-.905-.509-1.045-1.096-.3m-326.617 1.746c-.519.52-.3 1.754.313 1.754.651 0 .694-.218.259-1.321-.156-.396-.413-.591-.572-.433m.513 3.13c0 .537.18 1.088.4 1.224.22.136.4.687.4 1.224 0 .537.18.976.4.976.542 0 .504-1.455-.08-3.072-.565-1.561-1.12-1.736-1.12-.352m324.48.352c-.584 1.617-.622 3.072-.08 3.072.22 0 .4-.439.4-.976 0-.537.18-1.088.4-1.224.474-.293.543-2.2.08-2.2-.175 0-.535.598-.8 1.328M38.8 251.6c0 .88.18 1.6.4 1.6.22 0 .4.349.4.776 0 .427.18.888.4 1.024.22.136.4.597.4 1.024 0 .427.18.776.4.776.937 0 .185-3.622-.921-4.437-.177-.13-.29-.4-.253-.6.162-.859-.056-1.763-.426-1.763-.22 0-.4.72-.4 1.6m70-.43c0 .648.26 1.244.6 1.375.447.171.6-.062.6-.915 0-.648-.26-1.244-.6-1.375-.447-.171-.6.062-.6.915m251.6.03c0 .44-.18.8-.4.8-.22 0-.4.529-.4 1.176 0 .647.18 1.288.4 1.424.238.147.4-.329.4-1.176 0-.783.18-1.424.4-1.424.22 0 .4-.36.4-.8 0-.44-.18-.8-.4-.8-.22 0-.4.36-.4.8m-2 5.6c-.3 1.1-.692 2-.872 2-.181 0-.328.36-.328.8 0 .44.251.8.557.8.612 0 1.043-.841 1.043-2.033 0-.422.18-.767.4-.767.22 0 .4-.63.4-1.4 0-2.009-.567-1.725-1.2.6m-317.187 1.5c.013.727.884 2.1 1.331 2.1.141 0 .25-.315.243-.7-.013-.727-.884-2.1-1.331-2.1-.141 0-.25.315-.243.7m1.187 3.538c0 1.21 1.55 4.962 2.049 4.962.193 0 .351.439.351.976 0 .537.18 1.088.4 1.224.22.136.4.597.4 1.024 0 .427.18.776.4.776.22 0 .4.36.4.8 0 .44.18.8.4.8.22 0 .4.326.4.725 0 .398.36 1.111.8 1.583.44.472.8 1.136.8 1.475 0 .339.18.617.4.617.22 0 .4.36.4.8 0 .44.18.8.4.8.22 0 .4.36.4.8 0 .44.18.8.4.8.22 0 .4.324.4.72 0 .742.715 1.68 1.28 1.68.176 0 .32-.27.32-.6 0-.33-.18-.6-.4-.6-.22 0-.404-.315-.409-.7-.005-.385-.361-1.15-.791-1.7-.43-.55-.786-1.226-.791-1.502-.008-.445-1.072-2.821-2.283-5.098-1.258-2.364-2.126-4.34-2.126-4.838 0-.309-.18-.562-.4-.562-.22 0-.4-.272-.4-.605 0-.333-.208-1.008-.462-1.5-.963-1.863-1.138-2.3-1.138-2.847 0-.309-.27-.666-.6-.793-.436-.167-.6.047-.6.783m313.8.962c-.149.88-.479 1.735-.735 1.9-.73.471-1.519 3.006-1.075 3.45.245.245.489.106.675-.383.159-.422.525-1.005.813-1.296.287-.29.522-.925.522-1.411 0-.485.286-1.29.636-1.79.349-.499.535-1.169.412-1.489-.408-1.063-.974-.601-1.248 1.019m-3.591 7.748c-.581.992-.916 2.03-.774 2.4.139.361.053.652-.192.652-.244 0-.443.166-.443.368 0 .203-.9 1.927-2 3.832-2.134 3.696-2.435 4.741-1.3 4.526.422-.08.75-.568.827-1.229.069-.604.294-1.097.5-1.097.205 0 .373-.36.373-.8 0-.44.18-.8.4-.8.22 0 .4-.36.4-.8 0-.44.18-.8.4-.8.22 0 .4-.36.4-.8 0-.44.18-.8.4-.8.22 0 .4-.32.4-.712 0-.391.36-.971.8-1.288.44-.317.8-.987.8-1.488 0-.502.18-.912.4-.912.22 0 .4-.45.4-1 0-1.484-.639-1.217-1.791.748m-108.911.052c.105.55.036 1-.153 1-.19 0-.345-.45-.345-1s.069-1 .153-1c.085 0 .24.45.345 1M108.9 279.407c-1.091 2.163-1.092 2.168-.125 1.915.723-.189 1.625-1.955 1.625-3.182 0-1.022-.602-.514-1.5 1.267m5.971-.386c.181.869.89.922 1.053.079.084-.438-.112-.7-.524-.7-.384 0-.605.259-.529.621m-8.02 3.346c-.302.187-.482.536-.4.774.09.261.367.298.698.092.302-.187.482-.536.4-.774-.09-.261-.367-.298-.698-.092m6.749.245c0 .629 1.005 1.038 1.8.733.623-.239.824-.907.3-.996-1.45-.247-2.1-.166-2.1.263m232.529.688c-.987 1.549-1.779 2.984-1.987 3.6-.129.385-.361.7-.514.7-.153 0-.526.63-.828 1.4-.302.77-.696 1.4-.875 1.4-.179 0-.325.255-.325.567 0 .311-.225.647-.5.745-.275.098-.378.31-.23.47.41.442 3.13-2.205 3.13-3.046 0-.405.18-.736.4-.736.22 0 .4-.27.4-.6 0-.33.18-.6.4-.6.22 0 .4-.36.4-.8 0-.44.18-.8.4-.8.22 0 .4-.36.4-.8 0-.44.18-.8.4-.8.22 0 .4-.27.4-.6 0-.729-.633-.788-1.071-.1m-293.329.612c0 .391.36.971.8 1.288.44.317.8.897.8 1.288 0 .392.18.712.4.712.22 0 .4.27.4.6 0 .33.18.6.4.6.22 0 .4.193.4.429 0 .235.225.656.5.934s.858.985 1.295 1.571c.79 1.059 1.405 1.377 1.405.725 0-.187-.54-.905-1.2-1.596-.66-.691-1.2-1.617-1.2-2.059 0-.442-.18-.804-.4-.804-.22 0-.4-.236-.4-.525 0-.288-.36-.911-.8-1.383-.44-.472-.8-1.117-.8-1.432 0-.316-.285-.684-.633-.817-.908-.349-.967-.32-.967.469m55.6.1c-.679.457.753 1.988 1.86 1.988.315 0 1.251.346 2.081.77 2.204 1.124 2.709.514 1.062-1.283-.867-.947-1.721-1.487-2.35-1.487-.543 0-1.227-.088-1.52-.196-.293-.107-.803-.014-1.133.208m16.221.203c-.428.324-1.103.486-1.5.36-.544-.173-.721-.015-.721.641 0 .618-.178.801-.615.634-.35-.135-.713.019-.843.357-.138.36-.752.593-1.566.593h-1.338l.961 1.036c.622.671 1.143.922 1.48.711a2.584 2.584 0 011.121-.336c.382-.007.557-.324.481-.872-.103-.749.068-.856 1.312-.82 1.041.029 1.712-.242 2.468-.998 1.544-1.544.512-2.632-1.24-1.306m-9.25 3.785c0 .567.267.8.915.8 1.081 0 1.121-.136.285-.971-.842-.843-1.2-.792-1.2.171M136 289.576c0 .453.18.824.4.824.22 0 .4-.259.4-.576 0-.317-.18-.688-.4-.824-.22-.136-.4.123-.4.576m-13.435 1.408c-.931.689.119 1.78 1.735 1.803.495.007.9.199.9.426 0 .732 1.744 1.161 2.355.578.727-.694.284-1.791-.723-1.791-.436 0-.936-.243-1.112-.54-.503-.848-2.29-1.118-3.155-.476m11.72 1.664c-.62.62-.219.952 1.148.952.968 0 1.38-.162 1.269-.5-.183-.559-1.975-.894-2.417-.452m-75.485.719c0 .311.166.626.37.7.204.073.429.403.5.733.072.33.445.835.83 1.123.385.287.7.872.7 1.3 0 .437.273.777.624.777.343 0 .512.18.376.4-.136.22-.057.4.176.4.233 0 .424.249.424.553 0 .303.514 1.068 1.141 1.7.628.631 1.393 1.734 1.7 2.452.307.717.874 1.404 1.259 1.527.385.122.7.48.7.795 0 .315.152.573.339.573.419 0 2.061 1.398 2.061 1.754 0 .46 5.251 5.529 5.485 5.295.123-.124-.31-.726-.964-1.337-.654-.612-1.264-1.313-1.355-1.56-.165-.446-2.377-3.111-4.466-5.383-.605-.658-1.1-1.339-1.1-1.513 0-.174-.463-.751-1.029-1.283-.566-.532-1.409-1.643-1.873-2.47-.465-.827-.992-1.503-1.172-1.503-.179 0-.326-.27-.326-.6 0-.33-.142-.6-.315-.6-.174 0-.916-.99-1.649-2.2-1.264-2.085-2.436-2.871-2.436-1.633m87 1.154c-2.794.901-3.4 1.204-3.4 1.701 0 .628-.665.844-3.7 1.2-2.41.283-3.006.972-1.526 1.764.861.461 1.909.564 1.492.146-.147-.147.022-.587.376-.979.613-.676.693-.654 1.633.463 1.067 1.269 3.141.646 2.717-.816-.273-.943.511-1.95.967-1.242.298.461.609.404 1.8-.333 2.167-1.339 1.922-2.639-.359-1.904m193.262.21c-.364.403-.662.86-.662 1.017 0 .157-.179.503-.397.769-2.382 2.897-3.203 4.031-3.203 4.425 0 .256-.36.69-.8.965-.44.275-.8.768-.8 1.096 0 .329-.186.597-.413.597-.226 0-.53.315-.675.7-.145.385-.724 1.173-1.287 1.751-3.158 3.239-4.025 4.204-4.025 4.48 0 .168-.45.755-1 1.305-.956.957-1.203 1.364-.827 1.364.349 0 4.227-3.959 4.227-4.316 0-.442 2.401-2.484 2.92-2.484.201 0 .262-.27.135-.6-.14-.365 0-.6.358-.6.323 0 .587-.227.587-.504s.36-.728.8-1.003c.44-.275.8-.735.8-1.022 0-.287.54-1.039 1.2-1.671.66-.632 1.2-1.346 1.2-1.587 0-.24.36-.696.8-1.013.44-.317.8-.857.8-1.2 0-.343.36-.883.8-1.2.789-.569 1.119-2 .462-2-.186 0-.636.329-1 .731m-209.387-.045l-.926.176.839.727c.78.677 4.752 2.207 5.021 1.934.548-.558-.453-2.251-1.571-2.655-1.315-.475-1.715-.497-3.363-.182m27.285 5.074c-.146.382-.068.892.174 1.134.32.32.512.251.706-.254.146-.382.068-.892-.174-1.134-.32-.32-.512-.251-.706.254m-12.663 1.153c-1.793.902-1.731 1.053 1.097 2.649 2.471 1.394 3.212 1.52 3.563.605.403-1.048.294-1.249-.957-1.767-.66-.273-1.2-.621-1.2-.772 0-1.152-1.04-1.449-2.503-.715m10.298 2.787c-.299.682-.823.948-2.164 1.1-2.871.325-2.185 1.989 1.09 2.644 1.174.235 1.279.171 1.279-.773 0-1.368 1.683-3.228 2.333-2.578.356.356.467.315.467-.17 0-1.34-2.436-1.521-3.005-.223m12.805 1.1c-.14.227-.426.307-.635.178-.559-.345-3.213.62-2.937 1.068.136.22-.2.302-.796.194-.568-.103-1.032-.026-1.032.171 0 .675-3.313 1.314-4.504.868-1.333-.498-2.231.532-1.253 1.437.321.297.557.34.557.1a.41.41 0 01.4-.416c.22 0 .4.327.4.727 0 .643.399.733 3.441.774 2.996.041 3.346-.023 2.7-.498-.809-.596.137-1.373 1.012-.832.216.133.509.052.653-.181.144-.232.567-.325.942-.207 1.145.364 2.699-2.936 1.68-3.566-.205-.126-.488-.044-.628.183m10.262 5.421c.076.392.38.793.676.892.344.115.489-.078.4-.534-.076-.392-.38-.793-.676-.892-.344-.115-.489.078-.4.534M166 311.845c0 .487-.289.603-1.179.473-1.59-.234-1.168.293 1.194 1.49 2.187 1.108 3.79 1.276 4.115.431.27-.705-.053-1.039-1.005-1.039-.408 0-.947-.45-1.198-1-.505-1.11-1.927-1.371-1.927-.355m14.9.051c-1.854.105-2.5.292-2.5.723 0 .374-.412.581-1.154.581-.79 0-1.361.316-1.809 1-.484.738-1.007 1-1.997 1-1.857 0-2.609.949-1.367 1.726 1.651 1.031 3.127 1.197 3.127.351 0-.997 1.642-2.477 2.749-2.477.497 0 .788-.179.651-.4-.143-.231.236-.4.896-.4.629 0 1.343-.199 1.587-.443s1.031-.563 1.75-.71c1.229-.252 2.249-1.336 1.1-1.17-.293.042-1.658.141-3.033.219m-105.3 2.867c0 .649 10.001 10.484 10.406 10.233.762-.471.352-1.008-4.407-5.781-4.287-4.299-5.999-5.57-5.999-4.452m243.608 3.706c-4.566 4.768-4.808 5.131-3.428 5.131.561 0 1.02-.189 1.02-.419 0-.231 1.215-1.639 2.7-3.129 5.419-5.438 5.596-5.66 4.478-5.598-.68.037-2.134 1.261-4.77 4.015m-131.442-3.214c-.143.231-.703.336-1.244.232-.561-.107-1.065.02-1.171.296-.102.266-.403.487-.668.491-.266.005-1.396.453-2.512.997-1.139.554-2.505.925-3.113.843-.652-.087-1.357.127-1.767.538-.644.644-.618.666.464.395.915-.23 1.101-.169.921.3-.275.716.892 1.245 1.471.666.607-.607 2.08-.503 2.653.187.772.931 1.6.724 1.6-.4 0-.731.214-1 .795-1 .553 0 .767.236.7.775-.147 1.198.599 1.045 1.303-.267.521-.971.721-1.085 1.133-.644.657.704 2.515.684 3.493-.037.957-.707.462-1.312-1.224-1.496-.874-.096-1.233-.366-1.323-.997-.138-.965-1.109-1.53-1.511-.879m5.26 2.303c-.266.43.893.939 1.41.62.2-.124.364-.395.364-.602 0-.479-1.48-.494-1.774-.018m-6.129 5.044c-.29.329-.798.459-1.2.307-.617-.234-.628-.198-.097.313 1.512 1.456 4.74 2.266 5.09 1.278.103-.291-.154-.5-.613-.5-.509 0-.88-.356-1.041-1-.279-1.111-1.338-1.308-2.139-.398m12.703.112c0 .22-.495.523-1.1.675-.605.152-1.422.621-1.816 1.043-.411.441-1.262.773-2 .781-1.451.014-2.764.822-2.355 1.45.759 1.167 3.671 1.807 3.671.807 0-.725 1.703-2.27 2.502-2.27.358 0 .749-.16.87-.355.121-.195.834-.47 1.585-.611 1.642-.308 2.32-1.434.863-1.434-.525 0-1.239-.109-1.587-.243-.348-.133-.633-.063-.633.157m4.206.076c-.323.523.598.966 1.056.508.256-.256.179-.474-.222-.627-.338-.13-.713-.076-.834.119m15.794 2.243c0 .349.214.562.475.475.742-.247.865-1.108.158-1.108a.635.635 0 00-.633.633m-133.2.367c0 .33.284.6.631.6.348 0 1.323.72 2.169 1.6 1.486 1.547 2.4 2.01 2.4 1.217 0-.211-.654-.886-1.453-1.5-.8-.614-1.74-1.432-2.089-1.817-.779-.858-1.658-.911-1.658-.1m225.2.505c-.33.382-.96.893-1.4 1.136-.853.47-1.344 2.159-.628 2.159.235 0 .428-.174.428-.387 0-.212.63-1.016 1.4-1.786.77-.77 1.4-1.496 1.4-1.614 0-.435-.618-.181-1.2.492m-104.8.519c0 .233-.181.311-.403.174-.221-.137-.51.032-.642.374-.131.343-.4.524-.597.402-.197-.122-.358-.031-.358.202s-.529.424-1.176.424c-.647 0-1.288.18-1.424.4-.136.22-.692.4-1.236.4-1.086 0-1.716 1.008-1.047 1.677.289.289.785.296 1.574.021.863-.301 1.342-.263 1.907.15 1.143.836 1.735.668 1.875-.532.138-1.183 1.713-1.908 2.622-1.207.34.261.574.178.743-.264.136-.355.421-.645.633-.645.519 0 1.529-1.038 1.529-1.571 0-.236-.27-.429-.6-.429-.33 0-.6.186-.6.414 0 .286-.24.286-.774 0-1-.535-2.026-.53-2.026.01m-9.066 2.203c-.378.986.4 1.459 1.287.782.674-.514.698-.648.179-.995-.84-.562-1.188-.512-1.466.213m22.867 1.371c-.135.219.227.614.805.878.859.391 1.117.373 1.408-.099.248-.401.148-.66-.329-.849-1.009-.4-1.607-.378-1.884.07m-127.801.384c0 .365 1.046 1.492 2.65 2.856a9.027 9.027 0 011.338 1.5c.324.474.887.862 1.251.862.365 0 .884.266 1.154.592.56.674 2.854 1.895 3.1 1.649.37-.37-.95-1.838-2.37-2.636-.838-.471-1.523-.986-1.523-1.144 0-.159-.54-.608-1.2-.997-.66-.39-1.78-1.239-2.489-1.887-1.331-1.215-1.911-1.457-1.911-.795m212.6.67c-.782.667-1.025 1.092-.698 1.22a.468.468 0 01.26.662c-.133.256.295-.119.951-.834.656-.715 1.394-1.3 1.64-1.3s.447-.18.447-.4c0-.732-1.384-.385-2.6.652m-99.2 2.148c-.136.22.123.4.576.4.453 0 .824-.18.824-.4 0-.22-.259-.4-.576-.4-.317 0-.688.18-.824.4m95.949.588c-.136.355-.127.767.021.915.338.338 1.657-.467 1.551-.947-.144-.65-1.319-.626-1.572.032m-2.985 2.187c-.647.646-1.533 1.288-1.97 1.427-.437.138-.794.408-.794.598s-.36.46-.8.6c-.44.14-.8.512-.8.827 0 .742.585.731 1.343-.027.33-.33.883-.6 1.228-.6.346 0 .629-.258.629-.573 0-.315.405-.697.9-.847 1.169-.357 2.3-1.36 2.3-2.042 0-.867-.775-.624-2.036.637M103.437 339c.396.604 1.033 1 1.609 1 .581 0 .954.234.954.6 0 .33.315.603.7.607.385.004 1.124.454 1.642 1 .518.546 1.283.993 1.7.993.417 0 .758.18.758.4 0 .22.36.4.8.4.44 0 .8-.18.8-.4 0-.22-.32-.4-.712-.4-.391 0-.971-.36-1.288-.8-.317-.44-.762-.8-.988-.8-.227-.001-.935-.451-1.574-1-.639-.55-1.331-1-1.537-1-.206 0-.832-.36-1.392-.8-1.505-1.184-2.307-1.075-1.472.2m188.163 2.2c0 .22-.27.4-.6.4-.33 0-.6.146-.6.325 0 .179-.633.574-1.407.878-1.559.612-1.666 1.478-.156 1.255 1.46-.215 4.414-3.258 3.163-3.258-.22 0-.4.18-.4.4m-179.314 3.048c-.355.355.74 1.352 1.485 1.352.346 0 .629.18.629.4 0 .22.281.4.624.4.343 0 .512.18.376.4-.143.232.247.4.93.4.84 0 1.236.229 1.386.8.26.993 1.484 1.062 1.484.084 0-.466-.758-1.1-2.159-1.81-1.188-.601-2.38-1.359-2.649-1.684-.499-.601-1.659-.79-2.106-.342m173.189.734c-.34.34-.947.618-1.35.618-.403 0-.957.36-1.232.8-.275.44-.858.8-1.296.8-.439 0-.797.18-.797.4 0 .22-.27.4-.6.4-.33 0-.6.18-.6.4 0 .22-.36.4-.8.4-.44 0-.8.141-.8.312 0 .172-.54.516-1.2.766-1.252.472-1.638 1.322-.6 1.322.33 0 .6-.18.6-.4 0-.22.36-.4.8-.4.44 0 .8-.18.8-.4 0-.22.36-.4.8-.4.44 0 .8-.18.8-.4 0-.22.467-.4 1.037-.4.701 0 1.106-.259 1.247-.8.143-.547.546-.8 1.274-.8.607 0 1.314-.345 1.642-.8.317-.44.912-.8 1.322-.8.409 0 .673-.214.586-.475-.25-.752-.961-.814-1.633-.143M120.2 349.2c.136.22.507.4.824.4.317 0 .576.18.576.4 0 .22.36.4.8.4.44 0 .8.18.8.4 0 .22.339.4.753.4.433 0 .849.363.977.853.17.649.434.797 1.108.621.777-.203 3.003.599 3.562 1.282.611.749 2.445 1.359 2.854.95.371-.371-1.707-1.963-2.15-1.648-.21.15-3.329-1.41-4.104-2.054-.44-.365-1.565-.904-2.5-1.198-.935-.294-1.7-.685-1.7-.87 0-.185-.461-.336-1.024-.336-.58 0-.916.173-.776.4m153.413 2.376c-.472.883-.017 1.354.951.983.799-.307.84-1.759.05-1.759-.322 0-.773.349-1.001.776m-1.613.867c0 .243-.286.333-.636.198-.35-.134-1.143.117-1.762.558-.619.44-1.323.801-1.564.801-.241 0-.438.27-.438.6 0 .673 1.018.818 1.4.2.136-.22.597-.4 1.024-.4.427 0 .776-.15.776-.332 0-.183.45-.574 1-.868 1.009-.54 1.339-1.2.6-1.2-.22 0-.4.199-.4.443m-138.826 2.989c-.397.477-.373.542.129.35.339-.13.735-.044.88.191.312.505 1.417.576 1.417.091 0-.744-1.918-1.245-2.426-.632m131.824.17c-.932 1.03-.451 1.551.574.623.467-.422.987-.577 1.303-.387.404.243.399.16-.024-.361-.706-.87-.968-.852-1.853.125m-128.308.241c-.413.413.662 1.757 1.406 1.757.387 0 .704.156.704.348 0 .191.643.452 1.43.579 1.687.274 3.77 1.142 3.77 1.571 0 .166.469.302 1.043.302.786 0 .983-.155.8-.633-.134-.348-.243-.708-.243-.8 0-.092-.608-.167-1.351-.167s-1.566-.258-1.828-.574c-.262-.316-1.002-.69-1.644-.831-.642-.141-1.271-.423-1.396-.626-.126-.203-.578-.369-1.005-.369-.427 0-.776-.18-.776-.4 0-.443-.532-.535-.91-.157m125.41.439c-.495.096-.9.329-.9.518s-.367.402-.816.472c-1.125.176-1.182.9-.084 1.056.495.07.9-.053.9-.273 0-.221.343-.51.763-.643s.864-.506.987-.827c.124-.322.186-.56.137-.531-.048.03-.492.133-.987.228m-4.5 2.118c0 .22-.36.4-.8.4-.44 0-.8.18-.8.4 0 .22.36.4.8.4.44 0 .8-.18.8-.4 0-.22.27-.4.6-.4.33 0 .6-.18.6-.4 0-.22-.27-.4-.6-.4-.33 0-.6.18-.6.4m-110.723 1.63c.079.237.314.43.523.43.209 0 .445-.193.523-.43.079-.237-.156-.43-.523-.43s-.602.193-.523.43m1.923.77c0 .22.27.4.6.4.33 0 .6-.18.6-.4 0-.22-.27-.4-.6-.4-.33 0-.6.18-.6.4m2.4.629c0 .585 1.245 1.371 2.171 1.371 1.216 0 1.346-.602.255-1.186-.826-.442-2.426-.565-2.426-.185m96.4.171c0 .22.45.4 1 .4s1-.18 1-.4c0-.22-.45-.4-1-.4s-1 .18-1 .4m-2.37.523c-1.702.593-2.099 1.477-.663 1.477.568 0 1.033-.18 1.033-.4 0-.22.36-.4.8-.4.444 0 .8-.267.8-.6 0-.704-.155-.71-1.97-.077m-89.807.587c-.502.503-.164.89.777.89.55 0 1-.159 1-.353 0-.419-1.455-.859-1.777-.537m2.427.705c-.268.697.637 1.191 1.543.843.791-.303.321-1.458-.593-1.458-.393 0-.821.277-.95.615m83.43-.135c-.705.705-.587 1.12.32 1.12.533 0 .8-.267.8-.8 0-.907-.415-1.025-1.12-.32m-80.63.639c-.303.491.275 1.161.995 1.154.428-.004.581-.254.453-.74-.194-.743-1.087-.998-1.448-.414m77.494.399c-.37.593-.317.729.304.776.497.037.752-.207.752-.719 0-.971-.47-.996-1.056-.057m-75.344.482c0 .22.45.4 1 .4s1-.18 1-.4c0-.22-.45-.4-1-.4s-1 .18-1 .4m4 .8c0 .22.45.4 1 .4s1-.18 1-.4c0-.22-.45-.4-1-.4s-1 .18-1 .4m64.4 0c0 .22.63.4 1.4.4.77 0 1.4-.18 1.4-.4 0-.22-.63-.4-1.4-.4-.77 0-1.4.18-1.4.4m-61.502.266c-.898.362-.086.934 1.326.934 1.551 0 1.843-.581.476-.948-1.011-.271-1.099-.27-1.802.014m58.702.534c0 .22.349.4.776.4.427 0 .888-.18 1.024-.4.14-.227-.196-.4-.776-.4-.563 0-1.024.18-1.024.4m-53.9.265c-1.043.421-.437.935 1.1.935 1.736 0 2.149-.56.7-.948-1.01-.271-1.099-.27-1.8.013m49.7.02c-1.623.391-1.554.915.12.915 1.227 0 1.68-.162 1.68-.6 0-.606-.342-.666-1.8-.315m-45.899 1.101c-.845 1.162.03 1.668 2.098 1.214 1.375-.302 1.396-.957.055-1.686-1.241-.675-1.333-.655-2.153.472m41.199-.429c-.991.752-.868 1.386.325 1.685 1.56.392 2.565-.238 2.144-1.342-.383-1.004-1.41-1.147-2.469-.343m-33.1 1.043c0 .533.267.8.8.8s.8-.267.8-.8-.267-.8-.8-.8-.8.267-.8.8m25.484 0c-.179.684-.012.8 1.153.8 1.096 0 1.363-.157 1.363-.8 0-.615-.267-.8-1.153-.8-.817 0-1.215.233-1.363.8" fill="#b4b7bb"/><path d="M257.874 82.808c-1.733.519-2.242 1.113-3.915 4.578-1.384 2.864-2.07 4.189-3.22 6.214-.188.33-.521 1.05-.74 1.6-.22.55-.612 1.36-.873 1.8-2.306 3.897-3.181 6.524-2.703 8.119.48 1.601.047 2.517-20.417 43.281-1.822 3.63-3.784 7.584-4.36 8.788-1.407 2.942-27.152 54.783-29.66 59.725-1.092 2.152-1.986 4.276-1.986 4.719 0 2.449 7.698 7.318 13.24 8.374 3.061.583 3.38.339 5.757-4.4 1.183-2.359 2.674-5.08 3.313-6.047.639-.968 1.475-2.563 1.857-3.545.382-.982 1.311-2.836 2.064-4.121.753-1.285 1.369-2.457 1.369-2.605 0-.245 19.582-39.906 21.076-42.688.355-.66 1.348-2.64 2.208-4.4.859-1.76 1.936-3.92 2.393-4.8 1.513-2.917 2.256-4.385 2.935-5.8.857-1.785 4.699-9.508 12.116-24.351 5.089-10.185 6.038-11.831 7.116-12.348 1.566-.75 4.587-5.858 8.693-14.701.613-1.32 1.463-3.03 1.888-3.8 1.455-2.633 1.094-4.18-1.575-6.751-2.405-2.318-8.866-6.049-10.474-6.049-.456 0-1.132-.156-1.502-.347-1.127-.581-3.409-.802-4.6-.445" fill="#733e25"/><path d="M185.2 31.2c-.33.213-.971.391-1.425.394-.454.003-1.57.366-2.481.806-1.843.891-2.494.995-2.494.4 0-.22-.272-.4-.605-.4-.586 0-1.002.163-2.876 1.129-.563.291-.969.313-1.124.063-.364-.59-1.372-.472-2.088.244-.407.407-1.075.571-1.857.457-.725-.107-1.445.045-1.775.375-.373.373-.997.47-1.914.298-.885-.166-1.361-.099-1.361.189 0 .245-.54.445-1.2.445-.66 0-1.2-.18-1.2-.4 0-.22-.18-.4-.4-.4-.22 0-.4.36-.4.8 0 .47-.267.8-.647.8-.443 0-.582-.244-.443-.776.176-.674.103-.714-.554-.304-.416.26-.756.689-.756.953 0 .777-.786 1.037-1.456.48-.518-.429-.688-.396-1.021.2-.283.505-.681.644-1.356.475-.658-.166-1.206.011-1.761.566-.539.539-1.335.806-2.406.806-.88 0-1.6.18-1.6.4 0 .22-.27.4-.6.4-.33 0-.6-.195-.6-.433 0-.239-.225-.355-.5-.259-.275.096-.447.471-.382.833.067.378-.146.659-.5.659-.34 0-.63-.225-.645-.5-.015-.275-.222-.095-.461.4-.35.725-.766.9-2.14.9-1.001 0-1.78.206-1.886.5-.143.394-.374.386-1.091-.039-.826-.49-.89-.469-.708.227.235.901-1.634 1.924-2.906 1.591-.43-.112-.685-.047-.565.146.329.533-2.628 1.625-3.58 1.323-.892-.283-1.303-.148-1.13.371.059.175-.121.289-.4.253-1.333-.175-1.911.108-2.148 1.052-.155.618-.464.944-.778.824-.287-.11-.747.071-1.023.404-.276.332-.817.521-1.203.42-.386-.101-.803.078-.925.398-.123.319-.408.467-.633.328a.493.493 0 01-.147-.678c.152-.246.029-.339-.293-.222-.306.111-.505.423-.442.694.163.705-.69 1.608-1.52 1.608-.39 0-.818.284-.951.632-.175.455-.55.564-1.344.39-.886-.195-1.181-.065-1.514.668-.228.5-.633.865-.9.81-.267-.055-.485.08-.485.3 0 .22-.27.4-.6.4-.33 0-.6.18-.6.4 0 .22-.182.4-.403.4-.222 0-1.167.553-2.099 1.228-1.067.773-2.024 1.165-2.584 1.058-.49-.094-.794-.015-.676.175.448.726-2.317 2.584-3.114 2.092-.301-.186-.376-.065-.216.351.173.451-.097.753-.932 1.045-.647.225-1.176.57-1.176.766 0 .492-1.973 1.349-2.44 1.06-.209-.129-.33-.024-.27.232.061.257-.234.676-.655.93-.88.533-1.984 1.462-3.494 2.942-1.05 1.029-2.729 1.073-2.101.055.161-.259-.171-.125-.738.298-.711.531-.855.808-.465.897.852.196.689.627-.713 1.876-.786.7-1.337.956-1.434.666-.086-.259-.316-.471-.511-.471s-.257.251-.139.559c.228.596-1.329 2.258-3.14 3.35-.605.365-1.1.805-1.1.977 0 .173-.36.314-.8.314-.497 0-.798.265-.795.7.006.784-7.51 8.09-8.329 8.096-.288.002-.404.197-.258.434.358.578-1.372 2.37-2.288 2.37-.404 0-.73.287-.73.642 0 .806-1.978 3.391-5.596 7.315-.891.966-1.907 2.361-2.258 3.1-.35.738-.775 1.343-.944 1.343-.368 0-3.186 3.756-3.975 5.3-.309.605-.69 1.1-.846 1.1-.156 0-.512.549-.79 1.221-.323.781-.708 1.143-1.069 1.004-.31-.119-.462-.051-.338.15.276.445-.58 2.425-1.048 2.425-.185 0-.336.203-.336.451 0 .249-.684 1.464-1.521 2.7-.837 1.237-1.75 2.813-2.029 3.502-.623 1.536-2.312 3.114-2.593 2.422-.109-.267-.208-.183-.225.192-.018.366.193.741.468.833.345.116.16.658-.6 1.755-.605.873-1.1 1.871-1.1 2.218 0 .346-.263.847-.585 1.114-.321.267-.697.874-.835 1.349-.543 1.867-1.198 3.064-1.678 3.064-.276 0-.502.461-.502 1.024s-.163.922-.363.799c-.199-.123-.273.116-.165.531.109.416.002.877-.237 1.024-.239.148-.435.687-.435 1.197s-.278 1.158-.618 1.44c-.34.282-.526.754-.413 1.049.113.295.032.536-.182.536-.213 0-.387.324-.387.72 0 .894-.894 2.873-1.3 2.877-.165.002-.3.622-.3 1.379s-.18 1.488-.4 1.624c-.22.136-.4.687-.4 1.224 0 .537-.18.976-.4.976-.22 0-.4.45-.4 1s-.18 1-.4 1c-.22 0-.4.45-.4 1s-.162 1-.36 1c-.198 0-.456.765-.574 1.7-.386 3.059-.736 4.224-1.522 5.068-.426.458-.588.832-.36.832.229 0 .416.36.416.8 0 .44-.18.8-.4.8-.22 0-.4.63-.4 1.4 0 .77-.193 1.4-.429 1.4-.235 0-.395.405-.355.9.132 1.632-.01 2.351-.416 2.1-.247-.152-.4.529-.4 1.776 0 1.233-.176 2.024-.45 2.024-.285 0-.363.433-.213 1.185.155.776.034 1.386-.35 1.771-.707.707-.755 1.321-.121 1.533.355.118.355.474 0 1.493-.256.735-.466 2.01-.466 2.832 0 2.89-1.376 4.709-2.108 2.786-.126-.33-.243.345-.26 1.5-.024 1.592.11 2.1.554 2.1.902 0 1.477 1.456 1.187 3.006-.237 1.258-.569 1.584-1.473 1.441-.165-.026-.3 5.243-.3 11.709 0 10.95.048 11.751.7 11.7 1.125-.09 1.243 2.929.126 3.221-.705.185-.821.517-.794 2.27.017 1.129.122 1.828.233 1.553.678-1.681 2.106.355 2.122 3.026.007 1.17.193 2.464.414 2.876.268.501.268.832 0 .997-.611.378-.479 1.781.235 2.494.387.387.571 1.077.471 1.762-.091.619.009 1.184.223 1.255.214.071.407.931.43 1.91.022.979.242 1.995.489 2.257.247.263.361.938.253 1.5-.115.603-.012 1.023.251 1.023.246 0 .447.45.447 1s-.18 1-.4 1c-.717 0-.421.739.4 1 .81.257 1.137 1.4.4 1.4-.22 0-.4.191-.4.424 0 .233.18.312.4.176.365-.226.438-.031.56 1.5.022.275.134.59.248.7.511.491 1.192 2.539 1.192 3.585 0 .632.188 1.211.418 1.288.23.076.446.586.481 1.133.034.547.161 1.084.282 1.194.662.604 1.219 2.163 1.219 3.411 0 .885.312 1.756.826 2.306s.759 1.234.649 1.815c-.105.557.045 1.016.374 1.142.303.117.551.465.551.774 0 .31.18.92.4 1.357l.8 1.59c.22.437.4 1.067.4 1.4 0 .333.18.605.4.605.22 0 .4.253.4.562 0 .498.868 2.474 2.126 4.838 1.211 2.277 2.275 4.653 2.283 5.098.005.276.361.952.791 1.502.43.55.786 1.315.791 1.7.005.385.21.7.456.7.254 0 .353.355.231.823-.157.601.046.942.753 1.264.533.243.969.69.969.994 0 .304.36.939.8 1.411.44.472.8 1.095.8 1.383 0 .289.18.525.4.525.22 0 .4.362.4.804 0 .442.546 1.375 1.214 2.074.668.699 1.124 1.507 1.013 1.796-.111.289.04.526.337.526.296 0 1.138.99 1.872 2.2.733 1.21 1.475 2.2 1.649 2.2.173 0 .315.27.315.6 0 .33.147.6.326.6.18 0 .707.676 1.172 1.503.464.827 1.307 1.938 1.873 2.47.566.532 1.029 1.109 1.029 1.283 0 .174.495.855 1.1 1.513 2.089 2.272 4.301 4.937 4.466 5.383.091.247.681.929 1.31 1.518.629.588 1.095 1.298 1.034 1.576-.06.279.221.578.625.666.807.176 10.265 9.484 10.265 10.103 0 .212.23.385.511.385s.797.315 1.147.7c.349.385 1.302 1.213 2.116 1.839.817.628 1.391 1.374 1.281 1.663-.111.287.147.838.572 1.222.447.405.773.505.773.238 0-.742.534-.542 1.911.715.709.648 1.829 1.497 2.489 1.887.66.389 1.2.838 1.2.997 0 .158.702.682 1.56 1.164.858.483 1.788 1.304 2.067 1.826.28.522.813.949 1.187.949.373 0 1.136.36 1.695.8.56.44 1.186.8 1.392.8.206 0 .898.45 1.537 1 .639.549 1.31.999 1.491 1 .544 0 1.538 1.169 1.309 1.539-.118.19.26.255.84.144.827-.158 1.003-.07.817.413-.175.457-.034.561.554.407.459-.12 1.158.119 1.67.571.485.427 1.736 1.215 2.781 1.751 1.173.601 1.9 1.242 1.9 1.674 0 .534.333.701 1.4.701.77 0 1.4.151 1.4.336 0 .185.765.576 1.7.87.935.294 2.06.833 2.5 1.198.782.649 3.577 2.05 3.997 2.003.681-.075 2.545 1.279 2.374 1.725-.118.307.262.724.914 1.003.962.412 1.02.403.421-.068-.381-.3-.588-.651-.46-.78.354-.354 2.154.574 2.154 1.111 0 .258.26.469.578.469.318 0 .543-.173.5-.384-.043-.21.147-.465.422-.566.275-.101.5.011.5.25 0 .238.349.433.776.433.427 0 .879.166 1.005.369.125.203.754.485 1.396.626.642.141 1.382.515 1.644.831.262.316 1.085.574 1.828.574.743 0 1.351.152 1.351.339 0 .186.315.69.7 1.119.726.809 2.5 1.176 2.5.517 0-.206.27-.375.6-.375.33 0 .6.18.6.4 0 .22.72.4 1.6.4 1.031 0 1.867.267 2.35.75.413.413 1.243.75 1.845.75.603 0 1.269.247 1.481.55.298.426.431.437.588.05.452-1.115 1.96-.476 1.796.762-.019.144.227.363.548.486.322.123.54.016.487-.239-.052-.254.246-.535.662-.626.584-.126.711.013.555.61-.127.485.001.774.343.774.3 0 .545-.15.545-.334 0-.183.45-.333 1-.333s1 .18 1 .4c0 .22.9.4 2 .4s2 .157 2 .349c0 .192.728.329 1.618.306.891-.023 1.753.174 1.917.439.181.294 1.084.448 2.31.394 1.511-.066 2.197.097 2.756.656.707.707.771.709 1.258.043.457-.625.637-.641 1.662-.144 1.384.67 1.594 1.225.609 1.613-.461.182-.019.298 1.196.316 1.06.015 2.275-.158 2.7-.386.534-.286.774-.286.774 0 0 .228.18.414.4.414.22 0 .4-.36.4-.8 0-.533.267-.8.8-.8s.8.267.8.8c0 .729.267.8 3 .8 2.702 0 3-.077 3-.775 0-.88-.266-.932-8.4-1.632-5.479-.472-6.813-.633-9.8-1.182-1.1-.202-3.896-.644-6.214-.982-2.318-.337-5.271-.977-6.563-1.421-1.292-.444-2.798-.808-3.347-.808-.995 0-7.011-1.615-9.676-2.598-.77-.284-2.21-.755-3.2-1.046-.99-.292-2.25-.76-2.8-1.041-.55-.28-1.237-.511-1.526-.513-.289-.001-1.509-.452-2.711-1.002-1.203-.55-2.364-1-2.58-1-.217 0-.706-.173-1.088-.385-.382-.212-1.685-.82-2.895-1.352-6.892-3.031-18.017-8.83-18.333-9.557a.542.542 0 00-.45-.306c-.322 0-5.091-2.886-7.617-4.609-4.884-3.333-7.122-4.969-8.606-6.291-.926-.825-1.813-1.5-1.97-1.5-.26 0-2.328-1.702-6.807-5.6-3.674-3.199-12.081-11.634-14.749-14.8-1.577-1.87-2.957-3.49-3.067-3.6-1.134-1.129-4.861-5.958-8.425-10.914a183.491 183.491 0 00-2.476-3.355c-.605-.792-1.1-1.671-1.1-1.953 0-.281-.155-.571-.343-.645-1.501-.582-13.689-24.201-15.034-29.133-.151-.55-.466-1.45-.702-2-.83-1.939-1.079-2.648-2.731-7.8l-1.99-6.2a67.13 67.13 0 01-.817-2.91c-.271-1.051-.648-2.007-.838-2.124-.19-.117-.349-.968-.354-1.89-.006-.922-.366-3.014-.8-4.649-.435-1.635-.791-3.753-.791-4.705 0-.953-.162-2.045-.361-2.427-2.421-4.659-2.718-36.816-.466-50.495.199-1.21.56-3.443.802-4.962.242-1.519.96-4.939 1.597-7.6.637-2.661 1.275-5.468 1.418-6.238.143-.77.411-1.85.596-2.4.185-.55.734-2.35 1.219-4 .486-1.65 1.12-3.54 1.408-4.2.289-.66.656-1.74.816-2.4.16-.66.804-2.33 1.431-3.71.627-1.381 1.14-2.778 1.14-3.105 0-.328.173-.908.384-1.29.212-.382.859-1.775 1.439-3.095 1.788-4.073 5.87-12.343 6.648-13.468.406-.588 1.25-2.028 1.875-3.2 1.461-2.743 5.247-8.872 5.64-9.132.166-.11.598-.74.959-1.4 1.315-2.403 9.033-12.339 12.894-16.6 2.837-3.131 12.547-12.721 15.673-15.48 4.796-4.232 13.112-10.668 15.468-11.971.65-.359 1.427-.899 1.729-1.201.301-.301 1.39-1.021 2.419-1.599 1.03-.578 2.368-1.394 2.974-1.814.606-.419 2.046-1.272 3.2-1.897 1.154-.624 3.178-1.73 4.498-2.459 3.638-2.008 10.416-5.277 14-6.751 1.76-.724 4.46-1.837 6-2.473 1.54-.636 3.027-1.157 3.304-1.156.278.001 1.268-.341 2.2-.759 2.257-1.011 4.042-1.607 6.696-2.233 1.21-.286 3.28-.801 4.6-1.146 5.152-1.345 10.942-2.658 13.608-3.087 8.629-1.386 8.498-1.37 16.392-2.008 4.001-.324 9.465-.396 16.4-.218 9.732.25 12.543.458 19.6 1.45 1.54.216 4.26.57 6.044.786 1.784.216 3.764.598 4.4.847.636.25 2.146.6 3.356.777 2.232.328 6.326 1.416 9.6 2.552 5.325 1.847 9.318 3.014 9.638 2.816.199-.123.362-.067.362.123 0 .357 2.225 1.413 4 1.899 5.601 1.535 25.913 11.827 29.184 14.788.374.338.828.614 1.01.614.182 0 .975.495 1.762 1.1.787.605 1.733 1.28 2.101 1.5 1.163.694 9.018 6.499 10.206 7.542a618.01 618.01 0 004.537 3.897c5.018 4.277 12.28 11.542 16.705 16.713 2.142 2.503 4.12 4.785 4.395 5.071.275.286.5.679.5.874 0 .194.546.876 1.213 1.516.668.639 1.665 1.933 2.217 2.875.552.941 1.131 1.715 1.287 1.72.156.004.823.921 1.483 2.038.66 1.118 1.579 2.509 2.042 3.093.872 1.098 4.158 6.408 4.158 6.719 0 .096.36.562.8 1.034.44.472.8 1.149.8 1.503 0 .355.163.816.362 1.025 1.483 1.555 7.376 13.625 10.048 20.58.381.99 1.083 2.79 1.56 4 1.502 3.804 2.018 5.375 2.037 6.2.01.44.27 1.132.577 1.537.307.405.682 1.485.832 2.4.151.915.404 1.843.562 2.063.158.22.505 1.48.77 2.8.266 1.32.762 3.48 1.104 4.8.341 1.32.77 3.39.953 4.6.183 1.21.533 3.1.778 4.2s.609 3.35.809 5c.2 1.65.563 3.9.806 5 .243 1.1.54 3.98.661 6.4.295 5.935.601 7.562 1.451 7.726.612.118.69-.276.69-3.497 0-3.362-.059-3.629-.8-3.629-.681 0-.8-.267-.8-1.8 0-1.482.13-1.8.737-1.8.619 0 .74-.335.759-2.1.012-1.155-.063-1.785-.166-1.4-.458 1.701-2.098.073-2.117-2.103-.007-.771-.191-2.024-.409-2.784-.262-.911-.262-1.515 0-1.777.482-.482.526-1.836.059-1.836-.575 0-1.362-3.296-1.313-5.5.025-1.158-.132-2.1-.352-2.1-.219 0-.398-.551-.398-1.224 0-.713.167-1.12.4-.976.22.136.4-.017.4-.339 0-.389-.269-.516-.8-.377-.671.176-.8.012-.8-1.014 0-.672-.18-1.334-.4-1.47-.22-.136-.4-.711-.4-1.277 0-1.218-.793-4.161-1.267-4.703-.183-.209-.333-1.064-.333-1.9 0-.836-.18-1.52-.4-1.52-.22 0-.4-.349-.4-.776 0-.427-.18-.888-.4-1.024-.22-.136-.4-.777-.4-1.424 0-.647-.18-1.176-.4-1.176-.22 0-.4-.439-.4-.976 0-.537-.197-1.099-.438-1.248-.242-.149-.364-.778-.273-1.399.097-.662-.011-1.097-.262-1.053-.235.042-.413-.329-.395-.824.017-.498-.206-.9-.5-.9-.293 0-.532-.349-.532-.776 0-.427-.18-.888-.4-1.024-.22-.136-.4-.687-.4-1.224 0-.537-.18-.976-.4-.976-.22 0-.4-.27-.4-.6 0-.33-.712-2.067-1.582-3.86-1.256-2.591-1.496-3.42-1.167-4.035.227-.425.309-.878.181-1.006-.127-.128-.232-.022-.232.234 0 .257-.18.467-.4.467-.22 0-.4-.407-.4-.904 0-.497-.36-1.128-.8-1.403-.44-.275-.8-.695-.8-.935 0-.239-.333-.912-.741-1.496-.407-.584-1.532-2.592-2.5-4.462-.967-1.87-1.894-3.46-2.059-3.533-.165-.074-.3-.389-.3-.7 0-.312-.18-.567-.4-.567-.22 0-.4-.294-.4-.653 0-.359-.315-.946-.7-1.304-1.046-.973-1.763-2.417-1.452-2.921.164-.265.094-.334-.172-.169-.261.161-.862-.355-1.442-1.238-.547-.833-1.359-1.965-1.805-2.515-.446-.55-.815-1.332-.82-1.737-.005-.406-.363-.83-.796-.944-.432-.113-.889-.529-1.015-.926-.126-.396-.759-1.321-1.407-2.056-.648-.736-1.181-1.461-1.185-1.612-.003-.152-.546-.867-1.206-1.589-.66-.723-1.2-1.612-1.2-1.977 0-.364-.506-.871-1.124-1.127-.618-.256-1.418-.953-1.777-1.549s-1.112-1.568-1.672-2.161c-.602-.637-.921-1.333-.78-1.7.168-.438-.004-.622-.579-.622-.958 0-9.268-8.044-9.268-8.972 0-.384-.228-.515-.63-.361-.454.174-.594.035-.5-.498.084-.481-.15-.796-.67-.901-.44-.088-.89-.276-1-.417-.11-.14-.83-.729-1.6-1.308a45.242 45.242 0 01-2.4-1.944 21.13 21.13 0 00-1.9-1.491c-.495-.33-.9-.849-.9-1.154 0-.305-.192-.554-.427-.554-1.002 0-3.191-2.114-2.956-2.855.13-.41.06-.745-.157-.745-.216 0-.464.211-.549.468-.169.505-2.711-.765-2.711-1.354 0-.173-.242-.314-.538-.314-.296 0-.864-.36-1.262-.8-.398-.44-.966-.8-1.262-.8-.296 0-.538-.184-.538-.41 0-.225-.45-.581-1-.79-.55-.209-1-.545-1-.747 0-.201-.455-.481-1.011-.62-.626-.157-1.265-.784-1.675-1.644-.632-1.327-1.314-1.84-1.314-.989 0 .22-.282.4-.627.4-.445 0-.553-.232-.373-.8.198-.624.072-.8-.573-.8-.455 0-.827-.201-.827-.447 0-.245-.34-.357-.756-.249-1.127.295-2.025-.376-1.244-.93.473-.336.41-.373-.3-.173-.529.149-.9.077-.9-.174 0-.235-.45-.427-1-.427s-1-.18-1-.4c0-.22-.36-.4-.8-.4-.44 0-.8-.191-.8-.424 0-.233-.181-.311-.403-.174-.221.137-.896-.098-1.5-.522-.603-.424-1.772-1.012-2.597-1.306-1.319-.47-1.717-1.003-1.547-2.074.026-.165-.133-.3-.353-.3-.22 0-.4.18-.4.4 0 .22-.18.4-.4.4-.22 0-.405-.405-.412-.9-.011-.804-.056-.825-.42-.2-.487.835-1.168.922-1.168.149 0-.831-1.072-1.621-1.31-.966-.261.721-1.708-.175-1.638-1.014.028-.341-.188-.712-.48-.824-.339-.13-.451.006-.309.375.257.671-1.259.834-1.663.18-.136-.22-.597-.4-1.024-.4-.427 0-.776-.239-.776-.531 0-.368-.387-.474-1.264-.345-1.049.154-1.221.073-1.01-.474.206-.538.069-.614-.737-.412-.593.149-.989.076-.989-.182 0-.237-.268-.328-.597-.202-.34.131-.702-.046-.842-.412-.175-.454-.76-.642-2.004-.642-.966 0-1.757-.18-1.757-.4 0-.22-.381-.4-.847-.4-.668 0-.799-.18-.622-.858.168-.643.11-.743-.233-.4-.535.535-2.298.619-2.298.11 0-.191-.844-.443-1.876-.559-1.051-.119-2.081-.493-2.344-.852-.26-.357-1.036-.641-1.748-.641-.751 0-1.177-.165-1.032-.4.136-.22.057-.4-.176-.4-.233 0-.424.18-.424.4 0 .724-1.541.417-1.786-.356-.287-.903-2.214-1.416-2.214-.589 0 .3-.18.545-.4.545-.22 0-.4-.18-.4-.4 0-.22-.63-.4-1.4-.4-.77 0-1.4-.176-1.4-.391 0-.216-.841-.355-1.87-.31-1.183.051-1.93-.099-2.033-.409-.09-.269-.429-.49-.754-.49-.361 0-.477-.194-.298-.5.161-.275-.077-.176-.529.219-.752.659-.875.665-1.46.08-.447-.447-1.245-.612-2.651-.548-1.588.073-2.135-.07-2.596-.679-.508-.672-.585-.685-.596-.101-.024 1.228-3.361.746-3.946-.571-.074-.165-.671-.3-1.327-.3-.656 0-1.523-.177-1.927-.393-.609-.326-.701-.265-.539.355.31 1.183-.493 1.336-2.953.56-2.171-.684-2.227-.733-1.104-.981.651-.144-1.652-.264-5.117-.266-5.159-.003-6.3.098-6.3.56 0 .717-1.157.743-1.429.033-.152-.397-1.35-.542-4.688-.567-2.912-.023-4.063.077-3.283.285.85.226.961.333.38.367-.451.026-.991.215-1.2.42-.881.865-2.782.676-2.748-.273.017-.495.017-.897 0-.894a12.05 12.05 0 00-.632.394m75.6 51.2c.793.513 2.517.513 2.2 0-.136-.22-.822-.397-1.524-.394-.971.005-1.133.099-.676.394m-5.733.667c-.147.146-.267.631-.267 1.076 0 .798.009.799.587.033.844-1.115.584-2.014-.32-1.109M267 84.487c1.1.474 2.765 1.377 3.7 2.007 1.602 1.079 2.064 1.094 1.394.047-.541-.846-4.804-2.941-5.956-2.928-.994.011-.884.122.862.874m8.2 5.043c0 .259.167.47.372.47s.43.391.5.869c.07.477.353.942.628 1.033.862.284.545-.92-.5-1.902-.55-.517-1-.728-1-.47m-24.188 1.387c-.171.395-.199.83-.061.967.406.406.733-.164.546-.953-.165-.698-.187-.699-.485-.014m-3.357 7.503c-.298.674-.438 1.331-.31 1.458.27.27 1.137-1.831.967-2.342-.063-.188-.358.21-.657.884m-2.065 7.68c-.006.275-.726 1.938-1.6 3.696-.875 1.757-1.59 3.502-1.59 3.876 0 .374-.186.796-.413.936-.227.14-1.069 1.636-1.872 3.324-.802 1.687-1.787 3.497-2.187 4.022-.4.525-.728 1.312-.728 1.751 0 .438-.699 2.079-1.553 3.646-.854 1.567-1.768 3.524-2.031 4.349-.263.825-.625 1.5-.805 1.5-.384 0-3.611 6.191-3.611 6.928 0 .276-.533 1.125-1.184 1.887-.651.762-1.191 1.753-1.2 2.203-.009.45-.837 2.495-1.84 4.543-1.003 2.049-1.756 3.793-1.673 3.875.114.115 9.426-18.293 14.79-29.236.324-.66 1.493-3 2.598-5.2 3.595-7.155 5.709-11.645 5.709-12.127 0-.636-.797-.609-.81.027m18.042 11.069c-.018.312-.34.942-.717 1.4-.646.784-.632.782.247-.027.513-.472.835-1.102.717-1.4-.175-.439-.222-.434-.247.027m-10.96 22.14l-.727 1.291.874-.858c.482-.472.809-1.053.728-1.291-.081-.238-.474.148-.875.858m-30.408 14.62c-.365.404-.664.928-.664 1.164 0 .237-.615 1.518-1.366 2.847-.752 1.33-1.494 2.82-1.65 3.311-.156.492-.801 1.608-1.434 2.481-.632.874-1.15 1.942-1.15 2.374 0 .432-.354 1.44-.787 2.24-.433.799-1.331 2.669-1.995 4.154-.665 1.485-1.367 2.7-1.561 2.7-.194 0-.582.818-.862 1.819-.28 1-.822 2.216-1.204 2.702-.382.485-1.096 1.737-1.587 2.781-.491 1.044-1.038 1.898-1.216 1.898-.179 0-.451.578-.606 1.284-.318 1.447-1.58 4.056-2.628 5.435-.384.505-.821 1.495-.97 2.2-.148.704-.587 1.641-.975 2.081-.387.44-.821 1.294-.963 1.897-.143.603-.797 1.943-1.453 2.978-.656 1.035-1.193 2.175-1.193 2.534 0 .358-.447 1.072-.994 1.585-.547.514-1.115 1.58-1.263 2.37-.283 1.508-2.028 4.036-2.788 4.036-.244 0-1.684-.678-3.2-1.507-1.515-.828-4.555-2.377-6.755-3.442-2.2-1.064-4.27-2.092-4.6-2.284-.33-.192-3.93-2.006-8-4.031-8.648-4.302-10.179-4.494-16.578-2.076-.868.328-2.578.776-3.8.997-1.829.33-4.738 1.762-5.622 2.768-.11.125-1.1.829-2.2 1.565-1.1.735-3.17 2.262-4.6 3.393-1.43 1.131-4.78 3.615-7.445 5.521-4.59 3.283-7.355 5.816-7.355 6.74 0 .387-6.347 13.417-7.188 14.756-.207.33-.747 1.41-1.2 2.4-.452.99-1.082 2.25-1.4 2.8-.317.55-1.942 3.88-3.61 7.4-1.668 3.52-3.303 6.85-3.632 7.4-.33.55-1.045 1.9-1.59 3-.545 1.1-1.257 2.45-1.581 3-.877 1.486-5.399 11.196-5.399 11.593 0 .305.389 1.154 1.744 3.807 1.614 3.159 4.381 7.8 4.651 7.8.18 0 .502.502.715 1.115.345.987 12.623 7.616 22.105 11.934.542.246 5.233 2.586 10.425 5.2 5.192 2.613 9.872 4.946 10.4 5.185.528.239 3.48 1.707 6.56 3.262a2702.896 2702.896 0 0018 8.994c2.999 1.476 5.598 2.789 6.6 3.336.55.3 5.23 2.626 10.4 5.168 5.17 2.543 9.85 4.882 10.4 5.198.55.316 2.408 1.241 4.129 2.056l3.129 1.482 7.824-.651c9.164-.763 8.567-.449 11.112-5.828 1.002-2.118 2.178-4.481 2.614-5.251.437-.77 2.436-4.73 4.444-8.8 2.009-4.07 4.466-9.02 5.461-11 .995-1.98 2.064-4.14 2.374-4.8.311-.66.824-1.65 1.14-2.2.317-.55 1.402-2.71 2.412-4.8a488.836 488.836 0 015.537-11.08c1.409-2.725.92-31.469-.571-33.52-.248-.341-3.386-8.159-4.143-10.32-.139-.396-1.199-1.14-2.357-1.655-2.332-1.035-14.444-6.996-15.705-7.728-.44-.256-2.06-1.026-3.6-1.713-1.54-.686-3.16-1.444-3.6-1.684-.44-.24-2.094-1.135-3.675-1.989-1.581-.854-2.955-1.859-3.053-2.232-.132-.501-.191-.45-.226.194-.065 1.223 1.899 2.408 10.754 6.487 1.43.659 3.05 1.463 3.6 1.788.55.324 4.51 2.341 8.8 4.482 8.118 4.05 8.249 4.138 8.657 5.77.138.55.475 1.27.749 1.6.275.33.624 1.05.777 1.6.153.55.97 2.62 1.816 4.6l1.537 3.6.284 12.604c.29 12.833-.035 18.055-1.182 18.996-.485.398-3.038 5.401-3.038 5.953 0 .159-.45.952-1 1.761-.55.809-1 1.763-1 2.119 0 .356-.563 1.424-1.251 2.373-.687.95-1.414 2.321-1.615 3.048-.201.727-.774 1.822-1.274 2.434-.501.611-1.237 2.012-1.637 3.112-.4 1.1-1.043 2.54-1.43 3.2-.386.66-.836 1.65-1 2.2-.164.55-.622 1.461-1.019 2.024-.396.564-.848 1.531-1.003 2.15-.156.619-.88 2.032-1.609 3.14-.73 1.108-1.447 2.57-1.595 3.25-.148.68-.786 1.827-1.418 2.55-.632.723-1.149 1.477-1.149 1.676 0 2.347-5.108 10.41-6.595 10.41-.465 0-1.051.206-1.303.458-.305.305-2.729.473-7.238.5l-6.779.042-.96-1.032c-.537-.577-1.803-1.244-2.871-1.513-1.051-.264-2.595-.913-3.432-1.441-.836-.528-2.689-1.49-4.117-2.137-1.428-.648-2.713-1.366-2.855-1.597-.143-.23-.842-.542-1.555-.694-.712-.151-1.565-.502-1.895-.78-.33-.278-1.261-.717-2.068-.976-.807-.259-1.694-.744-1.971-1.077-.665-.801-2.538-1.753-3.448-1.753-.4 0-1.354-.417-2.12-.928-.766-.51-2.602-1.435-4.081-2.054-1.478-.62-2.991-1.463-3.362-1.873-.37-.41-1.072-.745-1.558-.745s-1.313-.331-1.838-.736c-.525-.405-1.579-.949-2.343-1.21-.763-.261-1.843-.909-2.4-1.44-.556-.532-1.911-1.193-3.011-1.47-1.1-.277-2.276-.73-2.613-1.007-.337-.276-1.957-1.146-3.6-1.931-1.643-.786-3.527-1.719-4.187-2.074-2.518-1.354-4.838-2.449-5.8-2.739-.55-.165-1.581-.808-2.291-1.427-.711-.62-1.955-1.251-2.767-1.403-.811-.152-2.082-.689-2.824-1.193-.743-.504-2.198-1.228-3.234-1.609s-2.334-1.1-2.884-1.598c-.55-.498-1.495-1.028-2.101-1.178-.605-.15-1.769-.613-2.585-1.029-.816-.416-1.698-.756-1.961-.756-.262 0-1.224-.624-2.136-1.386-.912-.762-2.324-1.509-3.138-1.661-.813-.151-2.131-.686-2.928-1.187-.798-.502-2.598-1.434-4-2.072-1.403-.637-2.798-1.459-3.1-1.827-.302-.367-.874-.667-1.272-.667-.491 0-1.156-.864-2.079-2.7-.746-1.485-2.289-4.289-3.428-6.232-2.021-3.444-2.455-4.784-1.701-5.25.204-.126.591-.902.859-1.724.269-.822.912-2.121 1.429-2.887.518-.766.941-1.779.941-2.251s.283-1.093.629-1.38c.767-.637 2.171-3.318 2.171-4.146 0-.331.539-1.216 1.198-1.966.658-.75 1.563-2.549 2.01-3.997.448-1.448.976-2.733 1.174-2.856.198-.122.58-.895.848-1.717.269-.822.912-2.121 1.429-2.887.518-.766.941-1.612.941-1.88 0-.268.543-1.291 1.206-2.274.664-.983 1.476-2.552 1.806-3.486.33-.935.944-1.941 1.366-2.237.422-.295 1.065-1.561 1.429-2.813.364-1.252 1.524-3.995 2.578-6.096 1.054-2.102 2.122-4.271 2.374-4.821 1.304-2.846 2.521-4.169 6.441-6.996 3.622-2.613 7.675-5.677 9.132-6.904.587-.494 1.171-.899 1.296-.9.126 0 1.816-1.17 3.757-2.6 1.94-1.43 3.745-2.6 4.01-2.6.265 0 1.017-.267 1.67-.593.654-.326 2.526-.858 4.162-1.183 1.635-.325 4.116-.947 5.512-1.383 1.842-.574 2.81-.689 3.523-.418 2.112.803 28.517 14.019 28.744 14.386.893 1.446 4.585-1.24 4.597-3.345.001-.255.361-1.004.8-1.664.439-.66 1.721-3.09 2.848-5.4 1.128-2.31 6.883-13.909 12.79-25.777 10.458-21.01 11.21-22.627 9.823-21.094m20.155 5.771a55.092 55.092 0 01-.752 1.693c-.108.216.094.103.449-.252.587-.587 1.385-2.741 1.015-2.741-.086 0-.406.585-.712 1.3m-16.754 33.317c-.67 1.471-.542 1.785.182.448.339-.625.541-1.211.449-1.302-.091-.092-.375.293-.631.854m-3.633 7.752c-.018.312-.34.942-.717 1.4-.646.784-.632.782.247-.027.513-.472.835-1.102.717-1.4-.175-.439-.222-.434-.247.027m145.692 3.731c-.178.275-.359 2.976-.401 6.002-.043 3.026-.181 5.668-.307 5.872-.297.48-1.029 5.922-1.23 9.141-.086 1.383-.251 2.666-.365 2.851-.114.184-.588 2.203-1.053 4.485-1.653 8.119-1.616 7.962-2.958 12.349-2.871 9.386-4.603 14.331-7.147 20.4-2.681 6.398-10.79 21.618-13.34 25.038-.508.681-.923 1.367-.923 1.526 0 .159-1.302 2.032-2.893 4.163-1.592 2.13-3.379 4.593-3.973 5.473-6.088 9.028-22.693 25.158-34.805 33.811-2.491 1.779-4.846 3.495-5.234 3.812-.387.317-.808.577-.934.577-.127 0-.98.511-1.896 1.136-.916.625-2.835 1.807-4.265 2.626-1.43.82-2.87 1.653-3.2 1.852-3.725 2.246-18.243 9.412-19.503 9.626-.163.028-1.197.416-2.297.862-3.734 1.515-10.791 3.946-13 4.478-3.935.947-7.737 2.195-8.004 2.626-.143.232-.574.301-.958.153-.383-.147-1.359-.067-2.168.179-2.275.69-9.353 2.109-10.47 2.099-2.459-.023-9.845 1.268-10.4 1.818-.84.831.443 1.756 2.376 1.713.783-.017 1.199-.122.924-.233-.806-.325-.577-1.159.473-1.721 1.144-.612 2.227-.312 2.227.618 0 .55.114.524.7-.156.936-1.086 3.3-1.593 3.3-.708 0 .348.18.632.4.632.22 0 .4-.18.4-.4 0-.22.36-.4.8-.4.44 0 .8-.18.8-.4 0-.22.461-.4 1.024-.4.58 0 .916.173.776.4-.136.22-.069.4.149.4.219 0 .511-.36.651-.8.208-.655.605-.8 2.194-.8 1.177 0 2.019-.197 2.142-.5.141-.347.304-.369.534-.071.332.432 2.494.6 2.456.191a5.407 5.407 0 01.027-.72c.066-.706.847-.625.847.087 0 .754 1.202.341 1.923-.661.688-.957 1.277-.923 1.277.074 0 1.035.672 1.035 1 0 .427-1.347 3.8-2.575 3.8-1.384 0 .347.172.525.383.395.21-.13.281-.501.157-.824-.173-.449.113-.587 1.217-.587.885 0 1.445-.194 1.449-.5.004-.332.134-.299.388.1.323.508.513.518 1.236.07.469-.291.734-.336.588-.1-.478.774.271.45 1.058-.457.612-.707.838-.776 1.106-.341.267.431.45.365.874-.313.295-.473.853-.859 1.24-.859s.704-.18.704-.4c0-.22.27-.4.6-.4.33 0 .6.18.6.4 0 .22.188.4.418.4.229 0 .364-.315.3-.7-.079-.467.181-.742.782-.828.495-.07.9-.274.9-.453s.445-.411.988-.515c.547-.104.886-.024.76.181-.485.784 1.276.064 2.076-.849.508-.58 1.04-.844 1.334-.662.363.225.303.454-.234.886-.66.533-.641.544.224.122.521-.254 1.037-.803 1.146-1.222.11-.418.376-.76.591-.76.215 0 .898-.361 1.517-.801 1.108-.79 2.64-.714 2.134.105-.148.239-.069.301.185.145.244-.151.343-.539.219-.862-.124-.323-.026-.587.217-.587.244 0 .443.18.443.4 0 .22.21.4.467.4.256 0 .353-.114.214-.253-.503-.502.576-1.825 1.327-1.629.408.107.834-.051.949-.35.115-.299.666-.659 1.226-.799.559-.141 1.017-.416 1.017-.612 0-.197.36-.357.8-.357.44 0 .8-.18.8-.4 0-.22.27-.4.6-.4.33 0 .6-.18.6-.4 0-.22.358-.4.797-.4.438 0 1.021-.36 1.296-.8.275-.44.829-.8 1.232-.8s1.002-.27 1.333-.6c.388-.389.958-.511 1.615-.346.873.219.981.146.768-.524-.196-.618.042-.892 1.156-1.329.772-.303 1.403-.697 1.403-.876 0-.179.27-.325.6-.325.33 0 .6-.191.6-.425 0-.234.315-.393.7-.354 1.946.198 2.5-.022 2.5-.994 0-.622.289-1.065.8-1.227.44-.14.8-.41.8-.6s.357-.46.794-.598c.437-.139 1.323-.781 1.97-1.427 1.186-1.187 2.036-1.51 2.036-.775 0 .917.757.311.873-.7.101-.873.333-1.1 1.127-1.1 1.409 0 2.27-.583 1.543-1.044-.706-.448 1.462-2.321 2.711-2.342.579-.009 1.073-.473 1.531-1.438.371-.783.977-1.536 1.345-1.672.369-.137.94-.547 1.27-.912.33-.365 1.095-.786 1.7-.936.605-.149 1.1-.448 1.1-.664 0-.215.315-.395.7-.398.575-.005.598-.071.125-.37-.799-.506 7.351-9.102 8.699-9.175.508-.027.812-.229.676-.449s-.046-.4.2-.4.343-.168.216-.374c-.127-.206.222-.828.776-1.382.555-.554 1.008-1.145 1.008-1.313 0-.169.612-.942 1.359-1.719.748-.776 1.829-1.917 2.404-2.534.574-.616 1.205-1.021 1.403-.899.198.122.266-.136.151-.574-.132-.505.028-.886.438-1.043.355-.136.645-.497.645-.801 0-.305.36-.779.8-1.054.44-.275.8-.709.8-.965 0-.257.631-1.248 1.403-2.204 1.629-2.018 1.849-2.32 2.424-3.333.234-.413.774-.944 1.2-1.178 1.084-.599 1.389-1.116 1.137-1.927-.12-.385-.026-.7.209-.7s.427-.27.427-.6c0-.33.136-.6.302-.6.167 0 .557-.585.868-1.3.311-.715.67-1.39.798-1.5.268-.231 1.123-1.692 1.961-3.352.32-.633.896-1.234 1.28-1.334.427-.112.628-.45.518-.871-.099-.379.732-2.267 1.847-4.197 1.114-1.93 2.026-3.675 2.026-3.878 0-.202.18-.368.4-.368.22 0 .4.21.4.467 0 .256.105.362.232.234.128-.128.027-.618-.225-1.088-.491-.917 1.135-4.413 2.053-4.413.234 0 .327-.257.207-.571-.267-.694.555-3.114 1.198-3.529.256-.165.588-1.033.74-1.928.201-1.19.43-1.568.852-1.406.463.178.525-.054.315-1.172-.146-.781-.097-1.394.111-1.394.205 0 .618-.902.918-2.004.474-1.739.655-1.971 1.372-1.755.673.203.734.151.327-.276-.595-.625-.672-2.765-.1-2.765.22 0 .4.306.4.68 0 .56.088.586.5.15.4-.424.4-.567 0-.713-.592-.217-.68-1.717-.1-1.717.22 0 .4-.572.4-1.272 0-1.305.788-3.928 1.18-3.929.121 0 .268-.765.326-1.7.074-1.176.382-1.932 1-2.457.602-.51.73-.815.394-.933-1.156-.406-.45-1.954.8-1.756.165.026.3-.414.3-.977 0-.58-.173-.916-.4-.776-.22.136-.4-.123-.4-.576 0-.453.164-.824.364-.824.2 0 .351-.845.335-1.878-.016-1.095.166-1.944.436-2.034.256-.085.465-.77.465-1.521 0-.752.171-1.367.381-1.367s.35-1.112.313-2.471c-.046-1.64.095-2.525.419-2.633.583-.195.66-1.696.087-1.696-.568 0-.473-1.271.157-2.1.623-.821 1.293-.906 1.578-.2.29.718.301-2.125.013-3.2-.133-.495-.49-.9-.795-.9-.965 0-.739-3.487.247-3.8 1.039-.33 1.253-7.4.224-7.4-.317 0-.722.225-.9.5M147.923 360.03c-.078.237-.314.43-.523.43-.209 0-.444-.193-.523-.43-.079-.237.156-.43.523-.43s.602.193.523.43m58.082 7.516c-.881.16-1.445.512-1.53.954-.219 1.148 7.109 1.049 7.409-.1.148-.567.546-.8 1.363-.8.886 0 1.153.185 1.153.8 0 .44.193.8.428.8s.37-.405.3-.9c-.136-.957-5.549-1.405-9.123-.754" fill="#6ebdce"/><path d="M246.432 105.973c-.018.315-.859 2.262-1.871 4.327-1.011 2.066-1.767 3.828-1.678 3.916.32.32 4.019-7.708 3.802-8.255-.188-.475-.227-.473-.253.012m-5.957 12.646c-1.205 2.481-1.07 2.828.171.442.555-1.067.941-2.008.857-2.091-.084-.084-.546.658-1.028 1.649m-1.759 3.481c-.674 1.054-1.168 2.3-.912 2.3.099 0 .547-.72.996-1.6.887-1.739.839-2.142-.084-.7m-3.736 7.54c-.569 1.122-.967 2.107-.885 2.189.082.082.632-.836 1.223-2.04.59-1.204.988-2.189.884-2.189-.104 0-.654.918-1.222 2.04m-2.399 4.797c-.352.681-.569 1.308-.482 1.395.087.087.457-.47.823-1.237.822-1.725.537-1.857-.341-.158m21.484.98c-.67 1.471-.542 1.785.182.448.339-.625.541-1.211.449-1.302-.091-.092-.375.293-.631.854m-23.485 3.023c-.569 1.122-.967 2.107-.885 2.189.082.082.632-.836 1.223-2.04.59-1.204.988-2.189.884-2.189-.104 0-.654.918-1.222 2.04m22.206-.139c-.844 1.693-.847 1.699-.62 1.699.299 0 1.529-2.438 1.331-2.637-.089-.089-.409.333-.711.938m-24.715 5.258c-.479.852-.869 1.705-.866 1.895.002.191.457-.445 1.009-1.411.553-.967.943-1.82.867-1.896-.077-.076-.531.559-1.01 1.412m-1.639 3.18c-.653 1.221-.518 1.561.209.524.352-.503.547-1.009.432-1.123-.114-.115-.403.155-.641.599m-2.635 5.316c-1.016 2.06-1.657 3.557-1.425 3.328.577-.57 3.627-6.718 3.43-6.914-.087-.087-.989 1.527-2.005 3.586m18.581 7.003c-.221.581-.514 1.239-.652 1.461-.137.223-.06.287.173.144.44-.273 1.401-2.663 1.07-2.663-.104 0-.37.476-.591 1.058m-22.526.858c-.391.632-1.04 2.484-.871 2.484.26 0 1.438-2.514 1.261-2.692-.089-.088-.265.005-.39.208m-3.241 6.565c-2.053 4.051-2.693 5.519-2.405 5.519.259 0 4.606-8.922 4.431-9.096-.077-.078-.989 1.532-2.026 3.577m-5 10.09a19.49 19.49 0 01-.825 1.856c-.228.425-.321.773-.208.773.343 0 1.894-3.262 1.661-3.494-.119-.119-.402.27-.628.865m-3.312 6.729c-1.046 1.997-1.822 3.71-1.725 3.807.097.097 1.009-1.481 2.026-3.507s1.794-3.739 1.725-3.807c-.069-.068-.981 1.51-2.026 3.507m-4.654 9.272c-1.345 2.757-2.436 5.152-2.424 5.321.011.169 1.192-2.007 2.624-4.835 1.432-2.829 2.523-5.223 2.424-5.322-.098-.098-1.279 2.078-2.624 4.836m-4.265 8.668c-.569 1.122-.967 2.107-.885 2.189.082.082.632-.836 1.223-2.04.59-1.204.988-2.189.884-2.189-.104 0-.654.918-1.222 2.04m22.234-.466c-.507.947-.53 1.345-.062 1.056.353-.218.903-1.83.625-1.83-.082 0-.335.348-.563.774m-24.814 5.427c-.477.77-.803 1.591-.725 1.825.078.233.54-.398 1.028-1.401 1.055-2.171.905-2.38-.303-.424m-2.195 4.191c-.553.876-1.005 1.835-1.005 2.131 0 .296-.9 2.258-2 4.361-2.538 4.85-2.53 5.158.223 7.824 2.478 2.4 6.44 4.473 10.637 5.565 3.832.997 4.231.729 6.933-4.66 1.218-2.427 2.392-4.413 2.61-4.413.219 0 .397-.281.397-.624 0-1.27-.886.009-3.189 4.603-2.608 5.201-2.875 5.417-5.971 4.827-5.542-1.056-13.24-5.925-13.24-8.374 0-.443.888-2.567 1.974-4.719 4.074-8.076 4.892-10.102 2.631-6.521m20.376 3.645c-.352.681-.569 1.308-.482 1.395.087.087.457-.47.823-1.237.822-1.725.537-1.857-.341-.158m-86.403 2.398c-.388.629.452 1.316 1.24 1.013.546-.209.579-.369.178-.853-.585-.705-1.048-.757-1.418-.16m-4.01 1.703c-2.071 3.238-5.592 10.533-6.361 13.179-.364 1.252-1.007 2.518-1.429 2.813-.422.296-1.036 1.302-1.366 2.237-.33.934-1.142 2.503-1.806 3.486-.663.983-1.206 2.006-1.206 2.274 0 .268-.423 1.114-.941 1.88-.517.766-1.16 2.065-1.429 2.887-.268.822-.65 1.595-.848 1.717-.198.123-.726 1.408-1.174 2.856-.447 1.448-1.352 3.247-2.01 3.997-.659.75-1.198 1.635-1.198 1.966 0 .828-1.404 3.509-2.171 4.146-.346.287-.629.908-.629 1.38 0 .472-.423 1.485-.941 2.251-.517.766-1.16 2.065-1.429 2.887-.268.822-.655 1.598-.859 1.724-.754.466-.32 1.806 1.701 5.25 1.139 1.943 2.682 4.747 3.428 6.232.923 1.836 1.588 2.7 2.079 2.7.398 0 .97.3 1.272.667.302.368 1.697 1.19 3.1 1.827 1.402.638 3.202 1.57 4 2.072.797.501 2.128 1.038 2.958 1.193.829.154 2.12.818 2.868 1.474.747.657 2.183 1.475 3.191 1.818 1.007.343 1.932.787 2.055.986.123.2.529.352.901.338.49-.019.428-.125-.224-.387-.495-.199-.9-.548-.9-.775 0-.227-.405-.419-.9-.426-1.616-.023-2.666-1.114-1.735-1.803.865-.642 2.652-.372 3.155.476.176.297.676.54 1.112.54.946 0 1.46 1.068.821 1.707-.589.589-.578 1.093.025 1.093.263 0 .938.42 1.5.934s1.87 1.246 2.906 1.627 2.491 1.105 3.234 1.609c.742.504 2.013 1.041 2.824 1.193.812.152 2.056.783 2.767 1.403.71.619 1.741 1.262 2.291 1.427.962.29 3.282 1.385 5.8 2.739 3.238 1.741 7.149 3.45 7.361 3.218.132-.143.015-.339-.258-.437-.353-.126-.383-.39-.104-.912.329-.613.576-.666 1.497-.322 1.191.446 4.504-.193 4.504-.868 0-.197.464-.274 1.032-.171.596.108.932.026.796-.194-.26-.422 2.485-1.467 2.862-1.089.13.13.476.037.768-.206.92-.762 1.149.802.339 2.307-.524.972-.927 1.291-1.43 1.132-.385-.123-.811-.043-.946.176-.136.22-.502.301-.815.181-.987-.379-1.623.305-.825.888.589.431.151.506-2.74.466-3.042-.041-3.441-.131-3.441-.774 0-.864-.622-.968-.933-.156-.291.758.336 1.168 2.698 1.765 1.081.273 2.573 1.029 3.314 1.68.742.651 1.508 1.184 1.702 1.184.195 0 .683.109 1.086.243.403.133.148-.134-.567-.595-1.604-1.032-1.618-1.156-.1-.933.91.133 1.2.02 1.2-.47 0-1.016 1.422-.755 1.927.355.251.55.79 1 1.198 1 .952 0 1.275.334 1.005 1.039-.255.663-1.824.734-3.056.138-.822-.397-.818-.373.07.4.52.453 1.353.823 1.851.823.499 0 1.154.298 1.456.662 1.449 1.746 7.149 3.418 7.149 2.098 0-.213.585-.342 1.3-.288.715.054 2.29-.342 3.5-.879 1.21-.538 2.274-.92 2.364-.849.09.07.315-.142.499-.471.199-.356.661-.513 1.138-.389.442.116 1.033.019 1.315-.214.644-.535 1.346-.111 1.541.93.103.549.526.841 1.346.931 1.683.184 2.178.79 1.221 1.496-.978.721-2.836.741-3.493.037-.412-.441-.612-.327-1.133.644-.671 1.251-1.463 1.367-1.303.192.063-.464-.173-.7-.7-.7-.581 0-.795.269-.795 1 0 1.124-.828 1.331-1.6.4-.573-.69-2.046-.794-2.653-.187-.568.568-1.747.053-1.479-.646.238-.619-.061-.67-1.232-.211-.87.341 1.406 2.044 2.731 2.044.864 0 2.746.972 3.394 1.753.277.333 1.164.818 1.971 1.077.807.259 1.738.698 2.068.976.33.278 1.183.629 1.895.78.713.152 1.412.464 1.555.694.142.231 1.427.949 2.855 1.597 1.428.647 3.281 1.609 4.117 2.137.837.528 2.381 1.177 3.432 1.441 1.068.269 2.334.936 2.871 1.513l.96 1.032 6.779-.042c4.509-.027 6.933-.195 7.238-.5.252-.252.838-.458 1.303-.458 1.487 0 6.595-8.063 6.595-10.41 0-.199.517-.953 1.149-1.676s1.27-1.87 1.418-2.55c.148-.68.865-2.142 1.595-3.25.729-1.108 1.453-2.521 1.609-3.14.155-.619.607-1.586 1.003-2.15.397-.563.855-1.474 1.019-2.024.164-.55.614-1.54 1-2.2.387-.66 1.03-2.1 1.43-3.2.4-1.1 1.136-2.501 1.637-3.112.5-.612 1.073-1.707 1.274-2.434.201-.727.928-2.098 1.615-3.048.688-.949 1.251-2.017 1.251-2.373 0-.356.45-1.31 1-2.119.55-.809 1-1.602 1-1.761 0-.544 2.55-5.552 3.031-5.953 1.095-.913 1.06-3.218-.05-3.31-.563-.046-1.363-.266-1.778-.488-.516-.276-.837-.27-1.016.019-.172.278-.624.184-1.324-.276-.585-.384-1.542-.662-2.127-.618-1.49.112-3.136-.588-3.136-1.333 0-2.44-2.467 2.13-17.279 32.006-.764 1.54-2.293 4.6-3.397 6.8a736.995 736.995 0 00-3.343 6.743c-.801 1.648-1.703 2.912-2.257 3.165-.508.231-.924.572-.924.756 0 .185-.18.336-.4.336-.22 0-.4-.27-.4-.6 0-.33-.317-.6-.704-.6-.387 0-.928-.36-1.203-.8-.275-.44-.673-.8-.885-.8-.211 0-1.368-.45-2.571-1-1.202-.55-2.389-1-2.638-1-.249 0-1.025-.429-1.726-.954-1.422-1.066-7.952-4.246-8.718-4.246-.27 0-.776-.247-1.124-.55-.573-.5-2.175-1.348-7.169-3.798-.956-.468-1.991-.852-2.3-.852-.309 0-.892-.315-1.296-.7-1.347-1.285-7.753-4.497-8.977-4.502-.269-.001-1.299-.544-2.289-1.208-.99-.663-2.79-1.659-4-2.214-1.21-.554-2.513-1.18-2.895-1.392-.382-.211-.926-.384-1.209-.384-.283 0-1.424-.585-2.537-1.3-1.97-1.266-4.937-2.795-6.959-3.586-.55-.215-1.45-.626-2-.913-.55-.287-2.89-1.451-5.2-2.586-2.31-1.135-4.83-2.396-5.6-2.801-.77-.406-2.75-1.402-4.4-2.214-6.546-3.221-9.316-4.622-10.8-5.465-.679-.386-1.955-.973-4-1.842-.77-.327-1.67-.805-2-1.061-1.007-.783-3.455-1.463-4.214-1.171-.512.196-.629.133-.41-.222.194-.314-.151-.878-.934-1.526-1.876-1.555-1.904-1.474 5.64-16.313.783-1.54 1.977-3.97 2.654-5.4.676-1.43 1.579-3.23 2.006-4 2.585-4.664 12.08-24.593 11.975-25.136-.069-.36-.484-.724-.921-.808-.436-.084-1.162-.536-1.613-1.004-.45-.469-1.78-1.662-2.955-2.652-1.174-.99-2.441-2.084-2.813-2.432-.624-.581-.74-.535-1.447.57M120.4 229.6c0 .44-.18.8-.4.8-.22 0-.4-.36-.4-.8 0-.44.18-.8.4-.8.22 0 .4.36.4.8M110 251.63c0 .853-.153 1.086-.6.915-.34-.131-.6-.727-.6-1.375 0-.853.153-1.086.6-.915.34.131.6.727.6 1.375m133.2 18.97c0 .55.155 1 .345 1 .189 0 .258-.45.153-1-.105-.55-.26-1-.345-1-.084 0-.153.45-.153 1m-132.8 7.54c0 1.227-.902 2.993-1.625 3.182-.967.253-.966.248.125-1.915.898-1.781 1.5-2.289 1.5-1.267m5.524.96c-.163.843-.872.79-1.053-.079-.076-.362.145-.621.529-.621.412 0 .608.262.524.7m-8.775 4.133c-.331.206-.608.169-.698-.092-.082-.238.098-.587.4-.774.331-.206.608-.169.698.092.082.238-.098.587-.4.774m8.551-.884c.524.089.323.757-.3.996-.795.305-1.8-.104-1.8-.733 0-.429.65-.51 2.1-.263M111.053 284c.629 0 1.483.54 2.35 1.487 1.647 1.797 1.142 2.407-1.062 1.283-.83-.424-1.766-.77-2.081-.77-1.107 0-2.539-1.531-1.86-1.988.33-.222.84-.315 1.133-.208.293.108.977.196 1.52.196m15.573.042c.517.836-1.681 2.521-3.233 2.477-1.244-.036-1.415.071-1.312.82.076.548-.099.865-.481.872-.33.005-.834.157-1.121.336-.337.211-.858-.04-1.48-.711l-.961-1.036h1.338c.814 0 1.428-.233 1.566-.593.13-.338.493-.492.843-.357.437.167.615-.016.615-.634 0-.656.177-.814.721-.641.397.126 1.072-.036 1.5-.36.938-.71 1.636-.77 2.005-.173m-10.055 3.787c.836.835.796.971-.285.971-.648 0-.915-.233-.915-.8 0-.963.358-1.014 1.2-.171m20.229 1.995c0 .317-.18.576-.4.576-.22 0-.4-.371-.4-.824 0-.453.18-.712.4-.576.22.136.4.507.4.824m-.098 3.276c.111.338-.301.5-1.269.5-1.367 0-1.768-.332-1.148-.952.442-.442 2.234-.107 2.417.452m10.898 1.891c0 .913-2.805 2.443-3.241 1.767-.456-.708-1.24.299-.967 1.242.424 1.462-1.65 2.085-2.717.816-.94-1.117-1.02-1.139-1.633-.463-.354.392-.523.832-.376.979.417.418-.631.315-1.492-.146-1.48-.792-.884-1.481 1.526-1.764 3.035-.356 3.7-.572 3.7-1.2 0-.289.495-.703 1.1-.92 3.589-1.287 4.1-1.326 4.1-.311m-14.562-.123c1.118.404 2.119 2.097 1.571 2.655-.269.273-4.241-1.257-5.021-1.934l-.839-.727.926-.176c1.648-.315 2.048-.293 3.363.182m24.802 5.772c-.194.505-.386.574-.706.254-.242-.242-.32-.752-.174-1.134.194-.505.386-.574.706-.254.242.242.32.752.174 1.134m-11.04.988c0 .151.54.499 1.2.772 1.251.518 1.36.719.957 1.767-.351.915-1.092.789-3.563-.605-2.828-1.596-2.89-1.747-1.097-2.649 1.463-.734 2.503-.437 2.503.715m10.167 1.415c.348.133.633.529.633.88 0 .485-.111.526-.467.17-.65-.65-2.333 1.21-2.333 2.578 0 .944-.105 1.008-1.279.773-3.275-.655-3.961-2.319-1.09-2.644 1.341-.152 1.865-.418 2.164-1.1.394-.899 1.177-1.116 2.372-.657m21.771 7.536c.089.456-.056.649-.4.534-.296-.099-.6-.5-.676-.892-.089-.456.056-.649.4-.534.296.099.6.5.676.892m5.565 1.511c-.089.269-.751.61-1.47.757-.719.147-1.506.466-1.75.71-.244.244-.958.443-1.587.443-.66 0-1.039.169-.896.4.137.221-.154.4-.651.4-1.107 0-2.749 1.48-2.749 2.477 0 .846-1.476.68-3.127-.351-1.242-.777-.49-1.726 1.367-1.726.99 0 1.513-.262 1.997-1 .448-.684 1.019-1 1.809-1 .742 0 1.154-.207 1.154-.581 0-.431.646-.618 2.5-.723 1.375-.078 2.74-.177 3.033-.219.294-.042.46.143.37.413m10.497 5.486c0 .207-.164.478-.364.602-.517.319-1.676-.19-1.41-.62.294-.476 1.774-.461 1.774.018M189.036 323c.161.644.532 1 1.041 1 .459 0 .716.209.613.5-.35.988-3.578.178-5.09-1.278-.531-.511-.52-.547.097-.313.402.152.91.022 1.2-.307.801-.91 1.86-.713 2.139.398m12.784-.2c1.457 0 .779 1.126-.863 1.434-.751.141-1.464.416-1.585.611s-.512.355-.87.355c-.799 0-2.502 1.545-2.502 2.27 0 1-2.912.36-3.671-.807-.409-.628.904-1.436 2.355-1.45.738-.008 1.589-.34 2-.781.394-.422 1.211-.891 1.816-1.043.605-.152 1.1-.455 1.1-.675 0-.22.285-.29.633-.157.348.134 1.062.243 1.587.243m3.042.498c-.458.458-1.379.015-1.056-.508.121-.195.496-.249.834-.119.401.153.478.371.222.627m15.846 1.577c-.247.742-1.108.865-1.108.158 0-.348.285-.633.633-.633.349 0 .562.214.475.475m-11.882 1.539c.534.286.774.286.774 0 0-.228.27-.414.6-.414.33 0 .6.193.6.429 0 .533-1.01 1.571-1.529 1.571-.212 0-.497.29-.633.645-.169.442-.403.525-.743.264-.909-.701-2.484.024-2.622 1.207-.14 1.2-.732 1.368-1.875.532-.565-.413-1.044-.451-1.907-.15-.789.275-1.285.268-1.574-.021-.669-.669-.039-1.677 1.047-1.677.544 0 1.1-.18 1.236-.4.136-.22.777-.4 1.424-.4.647 0 1.176-.191 1.176-.424 0-.233.161-.324.358-.202.197.122.466-.059.597-.402.132-.342.421-.511.642-.374.222.137.403.059.403-.174 0-.54 1.026-.545 2.026-.01m-9.626 2c.519.347.495.481-.179.995-.887.677-1.665.204-1.287-.782.278-.725.626-.775 1.466-.213m23.285 1.514c.477.189.577.448.329.849-.291.472-.549.49-1.408.099-1.672-.762-.67-1.642 1.079-.948M207.6 333.2c0 .22-.371.4-.824.4-.453 0-.712-.18-.576-.4.136-.22.507-.4.824-.4.317 0 .576.18.576.4" fill="#8c8c8e"/></g></svg>